SplineFontDB: 3.2
FontName: myuusunimuyo
FullName: myuusunimuyo
FamilyName: myuusunimuyo-v3
Weight: Regular
Copyright: Copyright (c) 2022, ark231
UComments: "2022-11-23: Created with FontForge (http://fontforge.org)"
Version: 001.000
ItalicAngle: 0
UnderlinePosition: -100
UnderlineWidth: 50
Ascent: 800
Descent: 200
InvalidEm: 0
LayerCount: 2
Layer: 0 0 "+gMyXYgAA" 1
Layer: 1 0 "+Uk2XYgAA" 0
XUID: [1021 707 -1884573640 11005345]
StyleMap: 0x0000
FSType: 0
OS2Version: 0
OS2_WeightWidthSlopeOnly: 0
OS2_UseTypoMetrics: 1
CreationTime: 1669164748
ModificationTime: 1671245821
OS2TypoAscent: 0
OS2TypoAOffset: 1
OS2TypoDescent: 0
OS2TypoDOffset: 1
OS2TypoLinegap: 90
OS2WinAscent: 0
OS2WinAOffset: 1
OS2WinDescent: 0
OS2WinDOffset: 1
HheadAscent: 0
HheadAOffset: 1
HheadDescent: 0
HheadDOffset: 1
Lookup: 4 0 0 "+VAhbVzB4MG5/bmPb in +MOkwxjDzZYdbVwAA lookup 0" { "+VAhbVzB4MG5/bmPb in +MOkwxjDzZYdbVwAA lookup 0-1"  } ['    ' ('DFLT' <'dflt' > 'latn' <'dflt' > ) 'liga' ('DFLT' <'dflt' > 'latn' <'dflt' > ) ]
MarkAttachClasses: 1
DEI: 91125
Encoding: ISO8859-1
UnicodeInterp: none
NameList: AGL For New Fonts
DisplaySize: -48
AntiAlias: 1
FitToEm: 0
WidthSeparation: 150
WinInfo: 0 38 14
BeginPrivate: 1
BlueValues 21 [0 0 564 565 675 683]
EndPrivate
BeginChars: 460 234

StartChar: i
Encoding: 105 105 0
Width: 598
Flags: W
HStem: 0 21G<459 526> 0 21G<459 526> 325 67<286.549 414.076> 608 67<44 213 287.004 414.02>
VStem: 175 66.875<435.943 563.33> 459 67<0 363 437.016 563.236>
LayerCount: 2
Fore
SplineSet
44 675 m 1xbc
 355 675 l 1
 450 673 526 595 526 500 c 2
 526 0 l 1
 459 0 l 1
 459 363 l 1
 429 339 392 325 351 325 c 0
 254 325 175 403 175 500 c 0
 175 541 189 578 213 608 c 1
 44 608 l 1
 44 675 l 1xbc
352 608 m 0
 288.315429688 608 241.875 556.84375 241.875 500.287109375 c 0
 241.875 482.24609375 246.600585938 463.655273438 257 446 c 0
 275 415 308 394 344 392 c 1
 351 392 l 2
 411.997070312 392 458.908203125 443.814453125 458.908203125 500.703125 c 0
 458.908203125 524.022460938 451.025390625 548.1953125 433 570 c 0
 426 579 398 608 352 608 c 0
EndSplineSet
Validated: 1
Ligature2: "+VAhbVzB4MG5/bmPb in +MOkwxjDzZYdbVwAA lookup 0-1" i
Ligature2: "+VAhbVzB4MG5/bmPb in +MOkwxjDzZYdbVwAA lookup 0-1" i
EndChar

StartChar: a
Encoding: 97 97 1
Width: 597
Flags: W
HStem: 0 21G<66 134> 312 64<177.288 308.833> 583 65<179.457 308.793 382 552>
VStem: 66 68<0 348 418.657 540.488> 352.896 67.1045<420.914 539.966>
LayerCount: 2
Fore
SplineSet
552 648 m 1
 552 583 l 1
 382 583 l 1
 406 555 420 519 420 480 c 0
 420 387 341 312 243 312 c 0
 202 312 164 325 134 348 c 1
 134 0 l 1
 66 0 l 1
 66 478 l 1
 67 478 l 1
 67 480 l 2
 67 571 143 645 239 648 c 1
 552 648 l 1
242 583 m 0
 188.370117188 583 133.884765625 541.10546875 133.884765625 480.243164062 c 0
 133.884765625 475.284179688 134.24609375 470.198242188 135 465 c 0
 144 407 197 376 243 376 c 0
 315.5703125 376 352.895507812 437.091796875 352.895507812 478.869140625 c 0
 352.895507812 484.297851562 352.264648438 489.400390625 351 494 c 1
 343 550 291 583 247 583 c 0
 245 583 244 583 242 583 c 0
EndSplineSet
Validated: 524289
Ligature2: "+VAhbVzB4MG5/bmPb in +MOkwxjDzZYdbVwAA lookup 0-1" a
Ligature2: "+VAhbVzB4MG5/bmPb in +MOkwxjDzZYdbVwAA lookup 0-1" a
EndChar

StartChar: u
Encoding: 117 117 2
Width: 632
Flags: W
HStem: 0 21G<223 290> 357 67<39 224 335.757 463.089> 640 67<334.233 462.77>
VStem: 224 67.0615<0 357 468.91 594.495> 507.432 66.8242<468.038 595.787>
LayerCount: 2
Fore
SplineSet
399 707 m 0
 400.154296875 707.025390625 401.30859375 707.037109375 402.462890625 707.037109375 c 0
 447.299804688 707.037109375 491.802734375 688.171875 523 656 c 0
 558.61328125 624.237304688 574.255859375 581.768554688 574.255859375 538.833007812 c 0
 574.255859375 448.924804688 505.661132812 356.966796875 408.197265625 356.966796875 c 0
 407.134765625 356.966796875 406.069335938 356.978515625 405 357 c 0
 367 357 329 357 291 357 c 1
 291 228 290 129 290 0 c 1
 223 0 l 1
 223 129 224 228 224 357 c 1
 39 357 l 1
 39 424 l 1
 224 424 l 1
 224 513 l 2
 223.536132812 518.049804688 223.30859375 523.10546875 223.30859375 528.151367188 c 0
 223.30859375 619.127929688 297.236328125 707.116210938 392.967773438 707.116210938 c 0
 394.96875 707.116210938 396.98046875 707.078125 399 707 c 0
398.859375 423.431640625 m 0
 452.198242188 423.431640625 507.431640625 467.6875 507.431640625 533.336914062 c 0
 507.431640625 588.622070312 459.14453125 640.046875 402.923828125 640.046875 c 0
 401.952148438 640.046875 400.9765625 640.03125 400 640 c 0
 399.228515625 640.017578125 398.45703125 640.02734375 397.686523438 640.02734375 c 0
 339.594726562 640.02734375 291.061523438 591.004882812 291.061523438 533.819335938 c 0
 291.061523438 475.501953125 337.715820312 423.431640625 398.859375 423.431640625 c 0
EndSplineSet
Validated: 524289
Ligature2: "+VAhbVzB4MG5/bmPb in +MOkwxjDzZYdbVwAA lookup 0-1" u
Ligature2: "+VAhbVzB4MG5/bmPb in +MOkwxjDzZYdbVwAA lookup 0-1" u
EndChar

StartChar: o
Encoding: 111 111 3
Width: 631
Flags: W
HStem: 0 21G<330.812 397.812> 343 67<158.724 286.055 397.812 582.812> 626 67<159.041 287.58>
VStem: 48 66.3799<454.049 581.796> 330.812 67<0 343 454.91 580.495>
LayerCount: 2
Fore
SplineSet
222.8125 693 m 4
 224.83203125 693.078125 226.842773438 693.116210938 228.844726562 693.116210938 c 4
 324.576171875 693.116210938 398.502929688 605.127929688 398.502929688 514.151367188 c 4
 398.502929688 509.10546875 398.276367188 504.049804688 397.8125 499 c 6
 397.8125 410 l 5
 582.8125 410 l 5
 582.8125 343 l 5
 397.8125 343 l 5
 397.8125 0 l 5
 330.8125 0 l 5
 330.8125 343 l 5
 292.8125 343 254.8125 343 216.8125 343 c 4
 215.743164062 342.978515625 214.677734375 342.966796875 213.615234375 342.966796875 c 4
 116.1484375 342.966796875 48 434.948242188 48 524.8671875 c 4
 48 567.791015625 63.529296875 610.245117188 98.8125 642 c 4
 130.008789062 674.171875 174.512695312 693.037109375 219.349609375 693.037109375 c 4
 220.50390625 693.037109375 221.658203125 693.025390625 222.8125 693 c 4
330.75 519.819335938 m 4
 330.75 577.001953125 282.21875 626.02734375 224.125976562 626.02734375 c 4
 223.35546875 626.02734375 222.583984375 626.017578125 221.8125 626 c 4
 220.834960938 626.03125 219.860351562 626.046875 218.887695312 626.046875 c 4
 162.66796875 626.046875 114.379882812 574.622070312 114.379882812 519.336914062 c 4
 114.379882812 453.685546875 169.616210938 409.431640625 222.953125 409.431640625 c 4
 284.094726562 409.431640625 330.75 461.5 330.75 519.819335938 c 4
EndSplineSet
Validated: 524289
Ligature2: "+VAhbVzB4MG5/bmPb in +MOkwxjDzZYdbVwAA lookup 0-1" o
Ligature2: "+VAhbVzB4MG5/bmPb in +MOkwxjDzZYdbVwAA lookup 0-1" o
EndChar

StartChar: e
Encoding: 101 101 4
Width: 451
Flags: W
HStem: 0 21G<189 256> 302 69<152.587 189> 578 68<152.587 189> 663 20G<189 256>
VStem: 46 67.9531<408.527 539.449> 189 67<0 306.538 372 577 641.479 683> 329.125 66.875<409.443 539.5>
LayerCount: 2
Fore
SplineSet
189 683 m 1
 256 683 l 1
 256 646 l 1
 336 630 396 559 396 474 c 0
 396 390 336 319 256 303 c 1
 256 0 l 1
 189 0 l 1
 189 302 l 1
 108 317 46 389 46 474 c 0
 46 560 108 631 189 646 c 1
 189 683 l 1
189 578 m 1
 140.314453125 563.137695312 113.953125 518.073242188 113.953125 473.08984375 c 0
 113.953125 430.295898438 137.809570312 387.576171875 189 371 c 5
 189 578 l 1
256 577 m 1
 256 372 l 1
 304.874023438 388.458007812 329.125 431.528320312 329.125 474.54296875 c 0
 329.125 517.779296875 304.624023438 560.958984375 256 577 c 1
EndSplineSet
Validated: 524289
Ligature2: "+VAhbVzB4MG5/bmPb in +MOkwxjDzZYdbVwAA lookup 0-1" e
Ligature2: "+VAhbVzB4MG5/bmPb in +MOkwxjDzZYdbVwAA lookup 0-1" e
EndChar

StartChar: k
Encoding: 107 107 5
Width: 430
Flags: W
HStem: 0 67<135 386>
VStem: 68 67<67 564>
LayerCount: 2
Fore
SplineSet
68 564 m 1
 135 564 l 1
 135 67 l 1
 386 67 l 1
 386 0 l 1
 280 0 174 0 68 0 c 1
 68 188 68 376 68 564 c 1
EndSplineSet
Validated: 1
EndChar

StartChar: s
Encoding: 115 115 6
Width: 440
Flags: W
HStem: 0 67<69 320> 148 68<136 320>
VStem: 69 67<216 587> 320 67<67 148>
LayerCount: 2
Fore
SplineSet
387 0 m 5
 69 0 l 5
 69 67 l 5
 320 67 l 5
 320 148 l 5
 69 148 l 5
 69 587 l 5
 136 587 l 5
 136 216 l 5
 387 216 l 5
 387 0 l 5
EndSplineSet
Validated: 1
EndChar

StartChar: t
Encoding: 116 116 7
Width: 438
Flags: W
HStem: 0 68<252 318> 144 67<122 185 252 318>
VStem: 55 67<0 144> 185 67<68 144 211 586> 318 67<68 144>
LayerCount: 2
Fore
SplineSet
185 586 m 5
 252 586 l 5
 252 211 l 5
 385 211 l 5
 385 0 l 5
 185 0 l 5
 185 144 l 5
 164 144 143 144 122 144 c 5
 122 0 l 5
 55 0 l 5
 55 211 l 5
 185 211 l 5
 185 586 l 5
318 144 m 5
 296 144 274 144 252 144 c 5
 252 68 l 5
 318 68 l 5
 318 144 l 5
EndSplineSet
Validated: 1
EndChar

StartChar: n
Encoding: 110 110 8
Width: 390
Flags: W
HStem: 0 65<139.152 250.081> 654 20G<159 226>
VStem: 46 66<92.5772 202.395> 159 67<283.544 674> 277 63<92.5772 202.48>
LayerCount: 2
Fore
SplineSet
159 674 m 5
 226 674 l 5
 226 290 l 5
 291 275 340 216 340 147 c 4
 340 66 274 0 193 0 c 4
 112 0 46 66 46 147 c 4
 46 216 94 274 159 290 c 5
 159 674 l 5
195 230 m 4
 149 230 112 193 112 147 c 4
 112 102 149 65 195 65 c 4
 240 65 277 102 277 147 c 4
 277 193 240 230 195 230 c 4
EndSplineSet
Validated: 1
EndChar

StartChar: h
Encoding: 104 104 9
Width: 437
Flags: W
HStem: 1 21G<68 135> 498 67<135 386>
VStem: 68 67<1 498>
LayerCount: 2
Fore
SplineSet
68 1 m 5
 68 189 68 377 68 565 c 5
 174 565 280 565 386 565 c 5
 386 498 l 5
 135 498 l 5
 135 1 l 5
 68 1 l 5
EndSplineSet
Validated: 1
EndChar

StartChar: m
Encoding: 109 109 10
Width: 446
Flags: W
HStem: 0 21G<69 136> 0 21G<69 136> 371 67<136 320> 520 67<69 320>
VStem: 69 67<0 371> 320 67<438 520>
LayerCount: 2
Fore
SplineSet
69 0 m 5xbc
 69 146 69 292 69 438 c 1
 320 438 l 1
 320 520 l 1
 69 520 l 1
 69 587 l 1
 387 587 l 1
 387 371 l 1
 136 371 l 1
 136 0 l 1
 69 0 l 5xbc
EndSplineSet
Validated: 1
EndChar

StartChar: r
Encoding: 114 114 11
Width: 438
Flags: W
HStem: 0 21G<180 247> 375 67<117 180 247 313> 517 68<247 313>
VStem: 50 67<442 587> 180 67<0 375 442 517> 313 67<442 517>
LayerCount: 2
Fore
SplineSet
180 0 m 1
 180 375 l 1
 50 375 l 1
 50 587 l 1
 117 587 l 1
 117 442 l 1
 138 442 159 442 180 442 c 1
 180 585 l 1
 380 585 l 1
 380 375 l 1
 247 375 l 1
 247 0 l 1
 180 0 l 1
313 442 m 1
 313 467 313 492 313 517 c 1
 247 517 l 1
 247 442 l 1
 269 442 291 442 313 442 c 1
EndSplineSet
Validated: 1
EndChar

StartChar: p
Encoding: 112 112 12
Width: 395
Flags: W
HStem: 0 21G<159 226> 609 65<139.152 250.081>
VStem: 46 66<471.227 581.348> 159 67<0 390.425> 277 63<471.227 581.348>
LayerCount: 2
Fore
SplineSet
159 0 m 1
 159 384 l 1
 94 399 46 457 46 527 c 0
 46 608 112 674 193 674 c 0
 274 674 340 608 340 527 c 0
 340 457 291 399 226 384 c 1
 226 0 l 1
 159 0 l 1
195 444 m 0
 240 444 277 481 277 526 c 0
 277 572 240 609 195 609 c 0
 149 609 112 572 112 526 c 0
 112 481 149 444 195 444 c 0
EndSplineSet
Validated: 1
EndChar

StartChar: vocalize
Encoding: 256 -1 13
Width: 1000
Flags: W
HStem: 550.867 191.175
LayerCount: 2
Fore
SplineSet
358.02734375 742.041992188 m 1
 421.477539062 678.3125 485.288085938 614.59375 549.008789062 550.8671875 c 1
 483.616210938 550.8671875 l 1
 441.721679688 592.76171875 399.826171875 634.65625 357.931640625 676.55078125 c 1
 316.037109375 634.65625 274.143554688 592.76171875 232.25 550.8671875 c 1
 166.852539062 550.8671875 l 1
 230.577148438 614.591796875 294.302734375 678.317382812 358.02734375 742.041992188 c 1
EndSplineSet
Validated: 524289
EndChar

StartChar: lonely_w
Encoding: 257 -1 22
Width: 333
Flags: W
HStem: -199 33<128.117 202.495> -63 33<128.189 202.931>
VStem: 81 33<-150.623 -77.1431 -48 -29> 218 32<-149.005 -78.8774 -48 -28>
LayerCount: 2
Fore
SplineSet
218 -28 m 1
 250 -28 l 1
 250 -114 l 2
 250 -161 212 -199 166 -199 c 0
 120 -199 83 -162 81 -117 c 1
 81 -29 l 1
 114 -29 l 1
 114 -48 l 1
 128 -36 146 -30 166 -30 c 0
 185 -30 203 -36 218 -48 c 1
 218 -28 l 1
165 -63 m 0
 137 -63 114 -86 114 -114 c 0
 114 -142 137 -166 165 -166 c 0
 194 -166 217 -142 217 -114 c 0
 217 -86 194 -63 165 -63 c 0
EndSplineSet
Validated: 1
EndChar

StartChar: lonely_y
Encoding: 258 -1 23
Width: 478
Flags: W
HStem: -198 33<201.005 274.866> -61 33<81 172 201.125 274 305 395>
VStem: 154 32<-149.688 -76.6098> 289 34<-150.557 -75.3722>
LayerCount: 2
Fore
SplineSet
81 -28 m 1
 395 -28 l 1
 395 -61 l 1
 305 -61 l 1
 316 -75 323 -94 323 -113 c 0
 323 -160 285 -198 238 -198 c 0
 192 -198 154 -160 154 -113 c 0
 154 -94 161 -75 172 -61 c 1
 81 -61 l 1
 81 -28 l 1
238 -62 m 0
 209 -62 186 -85 186 -113 c 0
 186 -141 209 -165 238 -165 c 0
 266 -165 289 -141 289 -113 c 0
 289 -85 266 -62 238 -62 c 0
EndSplineSet
Validated: 1
EndChar

StartChar: comma
Encoding: 44 44 24
Width: 215
Flags: W
HStem: 0 21G<69 136.016>
VStem: 69 67.0156<0 639>
LayerCount: 2
Fore
SplineSet
69 639 m 1
 136.015625 639 l 1
 136.015625 0 l 1
 69 0 l 1
 69 639 l 1
EndSplineSet
Validated: 524289
EndChar

StartChar: hyphen
Encoding: 45 45 25
Width: 323
Flags: W
VStem: 66 191.176
LayerCount: 2
Fore
SplineSet
257.17578125 332.981445312 m 5
 193.4453125 269.53125 129.7265625 205.720703125 66 142 c 5
 66 207.392578125 l 5
 107.89453125 249.287109375 149.7890625 291.182617188 191.68359375 333.077148438 c 5
 149.7890625 374.971679688 107.89453125 416.865234375 66 458.758789062 c 5
 66 524.15625 l 5
 129.724609375 460.431640625 193.451171875 396.706054688 257.17578125 332.981445312 c 5
EndSplineSet
Validated: 524289
EndChar

StartChar: period
Encoding: 46 46 26
Width: 540
Flags: W
HStem: 148.676 312.738
LayerCount: 2
Fore
SplineSet
400.83203125 461.4140625 m 5
 472.1875 461.4140625 l 5
 358.359375 148.67578125 l 5
 287.00390625 148.67578125 l 5
 354.8203125 335 l 5
 132.87890625 149.767578125 l 5
 132.35546875 148.328125 l 5
 131.166015625 148.328125 l 5
 130.650390625 147.897460938 l 5
 130.2890625 148.328125 l 5
 61 148.328125 l 5
 174.302734375 459.626953125 l 5
 245.658203125 459.626953125 l 5
 178.220703125 274.34375 l 5
 399.65234375 460.147460938 l 5
 400.154296875 459.55078125 l 5
 400.83203125 461.4140625 l 5
EndSplineSet
Validated: 524289
EndChar

StartChar: k_i
Encoding: 259 -1 27
Width: 821
Flags: W
HStem: 0 67<526 777> 325 67<286.651 414.076> 608 67<44 213 287.004 414.02>
VStem: 175 66.875<435.933 563.33> 459 67<67 363 437.016 563.134>
LayerCount: 2
Fore
SplineSet
458.908203125 500.703125 m 0
 458.908203125 555.850585938 413.470703125 608 352 608 c 0
 288.315429688 608 241.875 556.84375 241.875 500.287109375 c 0
 241.875 444.665039062 287.029296875 395.165039062 344 392 c 1
 351 392 l 2
 411.997070312 392 458.908203125 443.814453125 458.908203125 500.703125 c 0
44 675 m 1
 355 675 l 1
 450 673 526 595 526 500 c 0
 526 355.666992188 526 211.333007812 526 67 c 1
 777 67 l 1
 777 0 l 1
 671 0 565 0 459 0 c 1
 459 121 459 242 459 363 c 1
 429 339 392 325 351 325 c 0
 254 325 175 403 175 500 c 0
 175 541 189 578 213 608 c 1
 44 608 l 1
 44 675 l 1
EndSplineSet
Validated: 524289
LCarets2: 1 491
Ligature2: "+VAhbVzB4MG5/bmPb in +MOkwxjDzZYdbVwAA lookup 0-1" k i
EndChar

StartChar: k_a
Encoding: 260 -1 28
Width: 596
VWidth: 0
Flags: W
HStem: 0 67<134 384> 312 64<176.89 308.833> 583 65<179.457 310.348 382 552>
VStem: 66 68<67 348 417.458 540.488> 352.896 67.1045<420.914 539.866>
LayerCount: 2
Fore
SplineSet
352.895507812 478.869140625 m 0
 352.895507812 531.922851562 305.458984375 583 247 583 c 0
 245 583 244 583 242 583 c 0
 188.370117188 583 133.884765625 541.10546875 133.884765625 480.243164062 c 0
 133.884765625 417.063476562 189.088867188 376 243 376 c 0
 315.5703125 376 352.895507812 437.091796875 352.895507812 478.869140625 c 0
552 648 m 1
 552 583 l 1
 382 583 l 1
 406 555 420 519 420 480 c 0
 420 387 341 312 243 312 c 0
 202 312 164 325 134 348 c 1
 134 67 l 1
 384 67 l 1
 384 0 l 1
 278 0 172 0 66 0 c 1
 66 478 l 1
 67 478 l 1
 67 480 l 2
 67 571 143 645 239 648 c 1
 552 648 l 1
EndSplineSet
Validated: 524289
LCarets2: 1 106
Ligature2: "+VAhbVzB4MG5/bmPb in +MOkwxjDzZYdbVwAA lookup 0-1" k a
EndChar

StartChar: k_u
Encoding: 261 -1 29
Width: 632
VWidth: 0
Flags: W
HStem: 0 67<290.085 541> 357 67<39 224 335.757 463.089> 640 67<334.233 462.77>
VStem: 223.309 67.7529<67 357 468.91 594.495> 507.432 66.8242<468.038 595.787>
LayerCount: 2
Fore
SplineSet
398.859375 423.431640625 m 0
 452.198242188 423.431640625 507.431640625 467.6875 507.431640625 533.336914062 c 0
 507.431640625 588.622070312 459.14453125 640.046875 402.923828125 640.046875 c 0
 401.952148438 640.046875 400.9765625 640.03125 400 640 c 0
 399.228515625 640.017578125 398.45703125 640.02734375 397.686523438 640.02734375 c 0
 339.594726562 640.02734375 291.061523438 591.004882812 291.061523438 533.819335938 c 0
 291.061523438 475.501953125 337.715820312 423.431640625 398.859375 423.431640625 c 0
399 707 m 0
 400.154296875 707.025390625 401.30859375 707.037109375 402.462890625 707.037109375 c 0
 447.299804688 707.037109375 491.802734375 688.171875 523 656 c 0
 558.61328125 624.237304688 574.255859375 581.768554688 574.255859375 538.833007812 c 0
 574.255859375 448.924804688 505.661132812 356.966796875 408.197265625 356.966796875 c 0
 407.134765625 356.966796875 406.069335938 356.978515625 405 357 c 0
 367 357 329 357 291 357 c 1
 291 251.186523438 290.327148438 165.557617188 290.084960938 67 c 1
 541 67 l 1
 541 0 l 1
 435 0 329 0 223 0 c 1
 223 188 223 82 223 270 c 1
 223.859375 270 l 1
 223.944335938 297.857421875 224 326.595703125 224 357 c 1
 39 357 l 1
 39 424 l 1
 224 424 l 1
 224 513 l 2
 223.536132812 518.049804688 223.30859375 523.10546875 223.30859375 528.151367188 c 0
 223.30859375 619.127929688 297.236328125 707.116210938 392.967773438 707.116210938 c 0
 394.96875 707.116210938 396.98046875 707.078125 399 707 c 0
EndSplineSet
Validated: 524289
LCarets2: 1 286
Ligature2: "+VAhbVzB4MG5/bmPb in +MOkwxjDzZYdbVwAA lookup 0-1" k u
EndChar

StartChar: k_o
Encoding: 262 -1 30
Width: 693
VWidth: 0
Flags: W
HStem: 0 67<397.812 648.812> 343 67<158.724 286.055 397.812 582.812> 626.047 66.9902<159.041 287.58>
VStem: 48 66.3799<454.049 581.796> 330.812 67<67 343 454.91 580.495>
LayerCount: 2
Fore
SplineSet
330.75 519.819335938 m 0
 330.75 577.001953125 282.21875 626.02734375 224.125976562 626.02734375 c 0
 223.35546875 626.02734375 222.583984375 626.017578125 221.8125 626 c 0
 220.834960938 626.03125 219.860351562 626.046875 218.887695312 626.046875 c 0
 162.66796875 626.046875 114.379882812 574.622070312 114.379882812 519.336914062 c 0
 114.379882812 453.685546875 169.616210938 409.431640625 222.953125 409.431640625 c 0
 284.094726562 409.431640625 330.75 461.5 330.75 519.819335938 c 0
222.8125 693 m 0
 224.83203125 693.078125 226.842773438 693.116210938 228.844726562 693.116210938 c 0
 324.576171875 693.116210938 398.502929688 605.127929688 398.502929688 514.151367188 c 0
 398.502929688 509.10546875 398.276367188 504.049804688 397.8125 499 c 2
 397.8125 410 l 1
 582.8125 410 l 1
 582.8125 343 l 1
 397.8125 343 l 1
 397.8125 67 l 1
 648.8125 67 l 1
 648.8125 0 l 1
 542.8125 0 436.8125 0 330.8125 0 c 1
 330.8125 188 329.8125 58 329.8125 246 c 1
 330.8125 246 l 1
 330.8125 343 l 1
 292.8125 343 254.8125 343 216.8125 343 c 0
 215.743164062 342.978515625 214.677734375 342.966796875 213.615234375 342.966796875 c 0
 116.1484375 342.966796875 48 434.948242188 48 524.8671875 c 0
 48 567.791015625 63.529296875 610.245117188 98.8125 642 c 0
 130.008789062 674.171875 174.512695312 693.037109375 219.349609375 693.037109375 c 0
 220.50390625 693.037109375 221.658203125 693.025390625 222.8125 693 c 0
EndSplineSet
Validated: 524289
LCarets2: 1 379
Ligature2: "+VAhbVzB4MG5/bmPb in +MOkwxjDzZYdbVwAA lookup 0-1" k o
EndChar

StartChar: k_e
Encoding: 263 -1 31
Width: 550
VWidth: 0
Flags: W
HStem: 0 67<256 507> 302 69<152.587 189> 578 68<152.587 189> 663 20G<189 256>
VStem: 46 67.9531<408.527 539.449> 189 67<67 306.538 372 577 641.479 683> 329.125 66.875<409.443 539.5>
LayerCount: 2
Fore
SplineSet
256 577 m 1
 256 372 l 1
 304.874023438 388.458007812 329.125 431.528320312 329.125 474.54296875 c 0
 329.125 517.779296875 304.624023438 560.958984375 256 577 c 1
189 578 m 1
 140.314453125 563.137695312 113.953125 518.073242188 113.953125 473.08984375 c 0
 113.953125 430.295898438 137.809570312 387.576171875 189 371 c 1
 189 578 l 1
189 683 m 1
 256 683 l 1
 256 646 l 1
 336 630 396 559 396 474 c 0
 396 390 336 319 256 303 c 1
 256 67 l 1
 507 67 l 1
 507 0 l 1
 401 0 295 0 189 0 c 1
 189 302 l 1
 108 317 46 389 46 474 c 0
 46 560 108 631 189 646 c 1
 189 683 l 1
EndSplineSet
Validated: 524289
LCarets2: 1 239
Ligature2: "+VAhbVzB4MG5/bmPb in +MOkwxjDzZYdbVwAA lookup 0-1" k e
EndChar

StartChar: s_i
Encoding: 289 -1 37
Width: 830
VWidth: 0
Flags: W
HStem: 0 67<459 710> 148 68<526 710> 325 67<286.651 414.076> 608 67<44 213 287.004 414.02>
VStem: 175 66.875<435.933 563.33> 459 67<216 363 437.016 563.134> 710 67<67 148>
LayerCount: 2
Fore
SplineSet
458.908203125 500.703125 m 0
 458.908203125 555.850585938 413.470703125 608 352 608 c 0
 288.315429688 608 241.875 556.84375 241.875 500.287109375 c 0
 241.875 444.665039062 287.029296875 395.165039062 344 392 c 1
 351 392 l 2
 411.997070312 392 458.908203125 443.814453125 458.908203125 500.703125 c 0
44 675 m 1
 355 675 l 1
 450 673 526 594.995117188 526 500 c 2
 526 216 l 1
 777 216 l 1
 777 0 l 1
 459 0 l 1
 459 67 l 1
 710 67 l 1
 710 148 l 1
 459 148 l 1
 459 363 l 1
 429 339 392 325 351 325 c 0
 254 325 175 403 175 500 c 0
 175 541 189 578 213 608 c 1
 44 608 l 1
 44 675 l 1
EndSplineSet
Validated: 524289
LCarets2: 1 489
Ligature2: "+VAhbVzB4MG5/bmPb in +MOkwxjDzZYdbVwAA lookup 0-1" s i
EndChar

StartChar: s_a
Encoding: 290 -1 38
Width: 596
VWidth: 0
Flags: W
HStem: 0 67<66 317> 148 68<133.66 317> 312 64<176.594 308.833> 583 65<179.457 310.348 382 552>
VStem: 66 67.6602<216 348 419.495 540.488> 317 67<67 148> 352.896 67.1045<420.914 539.866>
LayerCount: 2
Fore
SplineSet
552 648 m 1xfc
 552 583 l 1
 382 583 l 1
 406 555 420 519 420 480 c 0xfa
 420 387 341 312 243 312 c 0
 202 312 163 325 133 348 c 1
 133.66015625 216 l 1
 384 216 l 1
 384 0 l 1
 66 0 l 1
 66 67 l 1
 317 67 l 1
 317 148 l 1
 233.333007812 148 149.666992188 148 66 148 c 1
 66 258 66 368 66 478 c 1
 67 478 l 1
 67 480 l 2
 67 571 143 645 239 648 c 1
 552 648 l 1xfc
352.895507812 478.869140625 m 0
 352.895507812 531.922851562 305.458984375 583 247 583 c 2
 242 583 l 2
 188.370117188 583 133.884765625 541.10546875 133.884765625 480.243164062 c 0
 133.884765625 417.063476562 189.088867188 376 243 376 c 0
 315.5703125 376 352.895507812 437.091796875 352.895507812 478.869140625 c 0
EndSplineSet
Validated: 524289
LCarets2: 1 0
Ligature2: "+VAhbVzB4MG5/bmPb in +MOkwxjDzZYdbVwAA lookup 0-1" s a
EndChar

StartChar: s_u
Encoding: 291 -1 39
Width: 632
VWidth: 0
Flags: W
HStem: 0 67<224 475> 148 68<291 475> 357 67<39 224 335.757 463.089> 640 67<334.233 462.77>
VStem: 224 67<216 357 468.91 594.495> 475 67<67 148> 507.432 66.8242<468.038 595.787>
LayerCount: 2
Fore
SplineSet
399 707 m 0xfc
 400.154296875 707.025390625 401.30859375 707.037109375 402.462890625 707.037109375 c 0
 447.299804688 707.037109375 491.802734375 688.171875 523 656 c 0
 558.61328125 624.237304688 574.255859375 581.768554688 574.255859375 538.833007812 c 0xfa
 574.255859375 448.924804688 505.661132812 356.966796875 408.197265625 356.966796875 c 0
 407.134765625 356.966796875 406.069335938 356.978515625 405 357 c 0
 367 357 329 357 291 357 c 1
 291 216 l 1
 542 216 l 1
 542 0 l 1
 224 0 l 1
 224 67 l 1
 475 67 l 1
 475 148 l 1
 224 148 l 1
 224 357 l 1
 39 357 l 1
 39 424 l 1
 224 424 l 1
 224 513 l 2
 223.536132812 518.049804688 223.30859375 523.10546875 223.30859375 528.151367188 c 0
 223.30859375 619.127929688 297.236328125 707.116210938 392.967773438 707.116210938 c 0
 394.96875 707.116210938 396.98046875 707.078125 399 707 c 0xfc
398.859375 423.431640625 m 0
 452.198242188 423.431640625 507.431640625 467.6875 507.431640625 533.336914062 c 0
 507.431640625 588.622070312 459.14453125 640.046875 402.923828125 640.046875 c 0
 401.952148438 640.046875 400.9765625 640.03125 400 640 c 0
 399.228515625 640.017578125 398.45703125 640.02734375 397.686523438 640.02734375 c 0
 339.594726562 640.02734375 291.061523438 591.004882812 291.061523438 533.819335938 c 0
 291.061523438 475.501953125 337.715820312 423.431640625 398.859375 423.431640625 c 0
EndSplineSet
Validated: 524289
LCarets2: 1 0
Ligature2: "+VAhbVzB4MG5/bmPb in +MOkwxjDzZYdbVwAA lookup 0-1" s u
EndChar

StartChar: s_o
Encoding: 292 -1 40
Width: 702
VWidth: 0
Flags: W
HStem: 0 67<331 582> 148 68<398 582> 343 67<158.724 286.055 398 582.812> 626 67<159.041 287.58>
VStem: 48 66.3799<454.049 581.796> 331 67<216 343 454.91 580.495> 582 67<67 148>
LayerCount: 2
Fore
SplineSet
222.8125 693 m 0
 224.83203125 693.078125 226.842773438 693.116210938 228.844726562 693.116210938 c 0
 324.576171875 693.116210938 398.502929688 605.127929688 398.502929688 514.151367188 c 0
 398.502929688 509.10546875 398.276367188 504.049804688 397.8125 499 c 2
 397.8125 410 l 1
 582.8125 410 l 1
 582.8125 343 l 1
 398 343 l 1
 398 216 l 1
 649 216 l 1
 649 0 l 1
 331 0 l 1
 331 67 l 1
 582 67 l 1
 582 148 l 1
 331 148 l 1
 331 221 l 1
 330.8125 343 l 1
 216.8125 343 l 2
 215.743164062 343 214.677734375 342.966796875 213.615234375 342.966796875 c 0
 116.1484375 342.966796875 48 434.948242188 48 524.8671875 c 0
 48 567.791015625 63.529296875 610.245117188 98.8125 642 c 0
 130.008789062 674.171875 174.512695312 693.037109375 219.349609375 693.037109375 c 0
 220.50390625 693.037109375 221.658203125 693.025390625 222.8125 693 c 0
330.75 519.819335938 m 0
 330.75 577.001953125 282.21875 626.02734375 224.125976562 626.02734375 c 0
 223.35546875 626.02734375 222.583984375 626.017578125 221.8125 626 c 0
 220.834960938 626.03125 219.860351562 626.046875 218.887695312 626.046875 c 0
 162.66796875 626.046875 114.379882812 574.622070312 114.379882812 519.336914062 c 0
 114.379882812 453.685546875 169.616210938 409.431640625 222.953125 409.431640625 c 0
 284.094726562 409.431640625 330.75 461.5 330.75 519.819335938 c 0
EndSplineSet
Validated: 524289
LCarets2: 1 0
Ligature2: "+VAhbVzB4MG5/bmPb in +MOkwxjDzZYdbVwAA lookup 0-1" s o
EndChar

StartChar: s_e
Encoding: 293 -1 41
Width: 560
VWidth: 0
Flags: W
HStem: 0 67<189 440> 148 68<256 440> 301 69<152.587 189> 577 68<152.587 189> 662 20G<189 256>
VStem: 46 67.9531<407.527 538.449> 189 67<216 305.538 371 576 640.479 682> 329.125 66.875<408.443 538.5> 440 67<67 148>
LayerCount: 2
Fore
SplineSet
256 576 m 1
 256 371 l 1
 304.874023438 387.458007812 329.125 430.528320312 329.125 473.54296875 c 0
 329.125 516.779296875 304.624023438 559.958984375 256 576 c 1
189 577 m 1
 140.314453125 562.137695312 113.953125 517.073242188 113.953125 472.08984375 c 0
 113.953125 429.295898438 137.809570312 386.576171875 189 370 c 1
 189 577 l 1
189 682 m 1
 256 682 l 1
 256 645 l 1
 336 629 396 558 396 473 c 0
 396 389 336 318 256 302 c 1
 256 216 l 1
 507 216 l 1
 507 0 l 1
 189 0 l 1
 189 67 l 1
 440 67 l 1
 440 148 l 1
 189 148 l 1
 189 301 l 1
 108 316 46 388 46 473 c 0
 46 559 108 630 189 645 c 1
 189 682 l 1
EndSplineSet
Validated: 524289
LCarets2: 1 0
Ligature2: "+VAhbVzB4MG5/bmPb in +MOkwxjDzZYdbVwAA lookup 0-1" s e
EndChar

StartChar: t_i
Encoding: 319 -1 67
Width: 711
VWidth: 0
Flags: W
HStem: 0 68<525 591> 144 67<395 458 525 591> 325 67<285.651 413.076> 608 67<43 212 286.004 413.02>
VStem: 174 66.875<435.933 563.33> 328 67<0 144> 458 67<68 144 211 363 437.016 563.134> 591 67<68 144>
LayerCount: 2
Fore
SplineSet
457.908203125 500.703125 m 0
 457.908203125 555.850585938 412.470703125 608 351 608 c 0
 287.315429688 608 240.875 556.84375 240.875 500.287109375 c 0
 240.875 444.665039062 286.029296875 395.165039062 343 392 c 1
 350 392 l 2
 410.997070312 392 457.908203125 443.814453125 457.908203125 500.703125 c 0
43 675 m 1
 354 675 l 1
 449 673 525 594.953125 525 500 c 2
 525 211 l 1
 658 211 l 1
 658 0 l 1
 458 0 l 1
 458 144 l 1
 437 144 416 144 395 144 c 1
 395 0 l 1
 328 0 l 1
 328 211 l 1
 458 211 l 1
 458 363 l 1
 428 339 391 325 350 325 c 0
 253 325 174 403 174 500 c 0
 174 541 188 578 212 608 c 1
 43 608 l 1
 43 675 l 1
591 144 m 1
 569 144 547 144 525 144 c 1
 525 68 l 1
 591 68 l 1
 591 144 l 1
EndSplineSet
Validated: 524289
LCarets2: 1 0
Ligature2: "+VAhbVzB4MG5/bmPb in +MOkwxjDzZYdbVwAA lookup 0-1" t i
EndChar

StartChar: t_a
Encoding: 320 -1 68
Width: 714
VWidth: 0
Flags: W
HStem: 0 68<252 318> 144 67<122 185 252 318> 313 64<295.308 426.944> 584 65<297.457 427.227 500 670>
VStem: 55 67<0 144> 185 67<68 144 211 349 419.618 541.488> 318 67<68 144> 471 67<421.907 540.548>
LayerCount: 2
Fore
SplineSet
471 480 m 0
 471 530.396484375 425.529296875 584 365 584 c 2
 360 584 l 2
 306 584 252 542 252 481 c 0
 252 416.201171875 308.98828125 377 361 377 c 0
 434 377 471 438 471 480 c 0
670 649 m 1
 670 584 l 1
 500 584 l 1
 524 556 538 520 538 481 c 0
 538 388 459 313 361 313 c 0
 320 313 282 326 252 349 c 1
 252 211 l 1
 385 211 l 1
 385 0 l 1
 185 0 l 1
 185 144 l 1
 164 144 143 144 122 144 c 1
 122 0 l 1
 55 0 l 1
 55 211 l 1
 185 211 l 1
 185 481 l 2
 185 572 261 646 357 649 c 1
 670 649 l 1
318 144 m 1
 296 144 274 144 252 144 c 1
 252 68 l 1
 318 68 l 1
 318 144 l 1
EndSplineSet
Validated: 524289
LCarets2: 1 0
Ligature2: "+VAhbVzB4MG5/bmPb in +MOkwxjDzZYdbVwAA lookup 0-1" t a
EndChar

StartChar: t_u
Encoding: 321 -1 69
Width: 632
VWidth: 0
Flags: W
HStem: 0 67<291 357> 143 67<161 224 291 357> 355 67<39 224 335.891 462.866> 638 67<337.659 462.579>
VStem: 94 67<0 143> 224 67<67 143 210 355 467.006 592.359> 357 67<67 143> 507 67<465.829 593.63>
LayerCount: 2
Fore
SplineSet
403 638 m 2
 398 638 l 2
 340 638 291 589 291 532 c 0
 291 474 338 421 399 421 c 0
 452 421 507 465 507 531 c 0
 507 586 459 638 403 638 c 2
393 705 m 2
 402 705 l 2
 447 705 492 686 523 654 c 0
 559 622 574 580 574 537 c 0
 574 447 505 355 408 355 c 2
 291 355 l 1
 291 210 l 1
 424 210 l 1
 424 0 l 1
 224 0 l 1
 224 143 l 1
 203 143 182 143 161 143 c 1
 161 0 l 5
 94 0 l 5
 94 210 l 1
 224 210 l 1
 224 355 l 1
 39 355 l 1
 39 422 l 1
 224 422 l 1
 224 511 l 2
 224 516 223 521 223 526 c 0
 223 617 297 705 393 705 c 2
357 143 m 1
 335 143 313 143 291 143 c 1
 291 67 l 1
 357 67 l 1
 357 143 l 1
EndSplineSet
Validated: 1
LCarets2: 1 0
Ligature2: "+VAhbVzB4MG5/bmPb in +MOkwxjDzZYdbVwAA lookup 0-1" t u
EndChar

StartChar: t_o
Encoding: 322 -1 70
Width: 630
VWidth: 0
Flags: W
HStem: 0 68<397 463> 144 67<267 330 397 463> 343 67<157.75 285.109 397 582> 626 67<158.561 283.341>
VStem: 47 66<454.906 581.63> 200 67<0 144> 330 67<68 144 211 343 455.006 580.359> 463 67<68 144>
LayerCount: 2
Fore
SplineSet
223 626 m 2
 218 626 l 2
 162 626 113 574 113 519 c 0
 113 453 169 409 222 409 c 0
 283 409 330 462 330 520 c 0
 330 577 281 626 223 626 c 2
218 693 m 2
 228 693 l 2
 324 693 398 605 398 514 c 0
 398 509 397 504 397 499 c 2
 397 410 l 1
 582 410 l 1
 582 343 l 1
 397 343 l 1
 397 211 l 1
 530 211 l 1
 530 0 l 1
 330 0 l 1
 330 144 l 1
 309 144 288 144 267 144 c 1
 267 0 l 1
 200 0 l 1
 200 211 l 1
 330 211 l 1
 330 343 l 1
 213 343 l 2
 116 343 47 435 47 525 c 0
 47 568 63 610 98 642 c 0
 129 674 173 693 218 693 c 2
463 144 m 1
 441 144 419 144 397 144 c 1
 397 68 l 1
 463 68 l 1
 463 144 l 1
EndSplineSet
Validated: 1
LCarets2: 1 0
Ligature2: "+VAhbVzB4MG5/bmPb in +MOkwxjDzZYdbVwAA lookup 0-1" t o
EndChar

StartChar: t_e
Encoding: 323 -1 71
Width: 468
VWidth: 0
Flags: W
HStem: 0 68<265 331> 144 67<135 198 265 331> 302 69<265 300.883> 577 68<161.587 198 265 300.883> 662 20G<198 265>
VStem: 55 68<408.378 538.404> 68 67<0 144> 198 67<68 144 211 305.538 371 576 640.479 682> 331 67<68 144> 338 67<408.45 540.308>
LayerCount: 2
Fore
SplineSet
265 576 m 1xf940
 265 371 l 1
 314 387 338 431 338 474 c 0
 338 517 314 560 265 576 c 1xf940
198 577 m 1
 149 562 123 517 123 472 c 0xfd
 123 429 147 387 198 370 c 1
 198 577 l 1
198 682 m 1
 265 682 l 1
 265 645 l 1
 345 629 405 558 405 473 c 0xfd40
 405 389 345 318 265 302 c 1
 265 211 l 1
 398 211 l 1
 398 0 l 1
 198 0 l 1
 198 144 l 1
 177 144 156 144 135 144 c 1
 135 0 l 1
 68 0 l 1
 68 211 l 1xfb80
 198 211 l 1
 198 301 l 1
 117 316 55 388 55 473 c 0
 55 559 117 630 198 645 c 1
 198 682 l 1
331 144 m 1xf980
 309 144 287 144 265 144 c 1
 265 68 l 1
 331 68 l 1
 331 144 l 1xf980
EndSplineSet
Validated: 1
LCarets2: 1 0
Ligature2: "+VAhbVzB4MG5/bmPb in +MOkwxjDzZYdbVwAA lookup 0-1" t e
EndChar

StartChar: n_i
Encoding: 349 -1 97
Width: 689
VWidth: 0
Flags: W
HStem: 0 65<439.152 550.081> 325 67<286.651 414.076> 608 67<44 213 287.004 414.02>
VStem: 175 66.875<435.933 563.33> 346 66<92.5772 202.395> 459 67<283.544 363 437.016 563.134> 577 63<92.5772 202.48>
LayerCount: 2
Fore
SplineSet
458.908203125 500.703125 m 0
 458.908203125 555.850585938 413.470703125 608 352 608 c 0
 288.315429688 608 241.875 556.84375 241.875 500.287109375 c 0
 241.875 444.665039062 287.029296875 395.165039062 344 392 c 1
 351 392 l 2
 411.997070312 392 458.908203125 443.814453125 458.908203125 500.703125 c 0
44 675 m 1
 355 675 l 1
 450 673 526 594.96484375 526 500 c 2
 526 290 l 1
 591 275 640 216 640 147 c 0
 640 66 574 0 493 0 c 0
 412 0 346 66 346 147 c 0
 346 216 394 274 459 290 c 1
 459 363 l 1
 429 339 392 325 351 325 c 0
 254 325 175 403 175 500 c 0
 175 541 189 578 213 608 c 1
 44 608 l 1
 44 675 l 1
495 230 m 0
 449 230 412 193 412 147 c 0
 412 102 449 65 495 65 c 0
 540 65 577 102 577 147 c 0
 577 193 540 230 495 230 c 0
EndSplineSet
Validated: 524289
LCarets2: 1 0
Ligature2: "+VAhbVzB4MG5/bmPb in +MOkwxjDzZYdbVwAA lookup 0-1" n i
EndChar

StartChar: n_a
Encoding: 350 -1 98
Width: 688
VWidth: 0
Flags: W
HStem: 0 65<139.152 250.081> 313 64<268.89 400.833> 584 65<271.457 402.348 474 644>
VStem: 46 66<92.5772 202.395> 159 67<283.544 349 418.458 541.488> 277 63<92.5772 202.48> 444.896 67.1045<421.914 540.866>
LayerCount: 2
Fore
SplineSet
444.895507812 479.869140625 m 0
 444.895507812 532.922851562 397.458984375 584 339 584 c 0
 337 584 336 584 334 584 c 0
 280.370117188 584 225.884765625 542.10546875 225.884765625 481.243164062 c 0
 225.884765625 418.063476562 281.088867188 377 335 377 c 0
 407.5703125 377 444.895507812 438.091796875 444.895507812 479.869140625 c 0
644 649 m 1
 644 584 l 1
 474 584 l 1
 498 556 512 520 512 481 c 0
 512 388 433 313 335 313 c 0
 294 313 256 326 226 349 c 1
 226 290 l 1
 291 275 340 216 340 147 c 0
 340 66 274 0 193 0 c 0
 112 0 46 66 46 147 c 0
 46 216 94 274 159 290 c 1
 159 481 l 2
 159 572 235 646 331 649 c 1
 644 649 l 1
195 230 m 0
 149 230 112 193 112 147 c 0
 112 102 149 65 195 65 c 0
 240 65 277 102 277 147 c 0
 277 193 240 230 195 230 c 0
EndSplineSet
Validated: 524289
LCarets2: 1 197
Ligature2: "+VAhbVzB4MG5/bmPb in +MOkwxjDzZYdbVwAA lookup 0-1" n a
EndChar

StartChar: n_u
Encoding: 351 -1 99
Width: 632
VWidth: 0
Flags: W
HStem: 0 65<204.152 315.081> 357 67<39 224 335.891 462.866> 640 67<337.659 462.579>
VStem: 111 66<92.5772 202.395> 224 67<283.544 357 469.006 594.359> 342 63<92.5772 202.48> 507 67<468.047 595.845>
LayerCount: 2
Fore
SplineSet
260 230 m 4
 214 230 177 193 177 147 c 4
 177 102 214 65 260 65 c 4
 305 65 342 102 342 147 c 4
 342 193 305 230 260 230 c 4
393 707 m 6
 402 707 l 6
 447 707 492 688 523 656 c 4
 559 624 574 582 574 539 c 4
 574 449 506 357 408 357 c 6
 291 357 l 5
 291 290 l 5
 356 275 405 216 405 147 c 4
 405 66 339 0 258 0 c 4
 177 0 111 66 111 147 c 4
 111 216 159 274 224 290 c 5
 224 357 l 5
 39 357 l 5
 39 424 l 5
 224 424 l 5
 224 513 l 6
 224 518 223 523 223 528 c 4
 223 619 297 707 393 707 c 6
403 640 m 6
 398 640 l 6
 340 640 291 591 291 534 c 4
 291 476 338 423 399 423 c 4
 452 423 507 468 507 533 c 4
 507 589 459 640 403 640 c 6
EndSplineSet
Validated: 1
LCarets2: 1 267
Ligature2: "+VAhbVzB4MG5/bmPb in +MOkwxjDzZYdbVwAA lookup 0-1" n u
EndChar

StartChar: n_o
Encoding: 352 -1 100
Width: 630
VWidth: 0
Flags: W
HStem: 0 65<310.152 421.081> 343 67<157.75 285.109 397 582> 626 67<158.083 283.341>
VStem: 47 66<455.125 581.683> 217 66<92.5772 202.395> 330 67<283.544 343 455.006 580.359> 448 63<92.5772 202.48>
LayerCount: 2
Fore
SplineSet
366 230 m 4
 320 230 283 193 283 147 c 4
 283 102 320 65 366 65 c 4
 411 65 448 102 448 147 c 4
 448 193 411 230 366 230 c 4
218 693 m 6
 228 693 l 6
 324 693 398 605 398 514 c 4
 398 509 397 504 397 499 c 6
 397 410 l 5
 582 410 l 5
 582 343 l 5
 397 343 l 5
 397 290 l 5
 462 275 511 216 511 147 c 4
 511 66 445 0 364 0 c 4
 283 0 217 66 217 147 c 4
 217 216 265 274 330 290 c 5
 330 343 l 5
 213 343 l 6
 115 343 47 435 47 525 c 4
 47 625 137 693 218 693 c 6
223 626 m 6
 218 626 l 6
 162 626 113 575 113 519 c 4
 113 454 169 409 222 409 c 4
 283 409 330 462 330 520 c 4
 330 577 281 626 223 626 c 6
EndSplineSet
Validated: 1
LCarets2: 1 364
Ligature2: "+VAhbVzB4MG5/bmPb in +MOkwxjDzZYdbVwAA lookup 0-1" n o
EndChar

StartChar: n_e
Encoding: 353 -1 101
Width: 451
VWidth: 0
Flags: W
HStem: 0 65<169.152 280.081> 293 69<152.587 189> 569 68<152.587 189> 654 20G<189 256>
VStem: 46 67.9531<399.527 530.449> 76 66<92.5772 202.395> 189 67<283.544 297.538 363 568 632.479 674> 307 63<92.5772 202.48> 329.125 66.875<400.443 530.5>
LayerCount: 2
Fore
SplineSet
225 230 m 0xf7
 179 230 142 193 142 147 c 0
 142 102 179 65 225 65 c 0
 270 65 307 102 307 147 c 0
 307 193 270 230 225 230 c 0xf7
189 293 m 1
 108 308 46 380 46 465 c 0
 46 551 108 622 189 637 c 1
 189 674 l 1
 256 674 l 1
 256 637 l 1
 336 621 396 550 396 465 c 0xfa80
 396 381 336 310 256 294 c 1
 256 290 l 1
 321 275 370 216 370 147 c 0
 370 66 304 0 223 0 c 0
 142 0 76 66 76 147 c 0
 76 216 124 274 189 290 c 1
 189 293 l 1
189 362 m 1
 189 569 l 1
 140.314453125 554.137695312 113.953125 509.073242188 113.953125 464.08984375 c 0
 113.953125 421.295898438 137.809570312 378.576171875 189 362 c 1
256 363 m 1
 304.874023438 379.458007812 329.125 422.528320312 329.125 465.54296875 c 0
 329.125 508.779296875 304.624023438 551.958984375 256 568 c 1
 256 363 l 1
EndSplineSet
Validated: 524289
LCarets2: 1 208
Ligature2: "+VAhbVzB4MG5/bmPb in +MOkwxjDzZYdbVwAA lookup 0-1" n e
EndChar

StartChar: h_i
Encoding: 364 -1 112
Width: 693
Flags: W
HStem: 0.116211 67<158.485 287.023> 283.685 66.4648<161.542 285.499 397.256 582.256> 583 67<397.256 648>
VStem: 47 66.8242<111.329 239.079> 330.194 67.7529<112.621 238.206 350.116 583>
LayerCount: 2
Fore
SplineSet
222.396484375 283.684570312 m 0
 169.057617188 283.684570312 113.82421875 239.428710938 113.82421875 173.779296875 c 0
 113.82421875 118.494140625 162.111328125 67.0693359375 218.33203125 67.0693359375 c 0
 219.303710938 67.0693359375 220.279296875 67.0849609375 221.255859375 67.1162109375 c 0
 222.02734375 67.0986328125 222.798828125 67.0888671875 223.569335938 67.0888671875 c 0
 281.661132812 67.0888671875 330.194335938 116.111328125 330.194335938 173.296875 c 0
 330.194335938 231.614257812 283.540039062 283.684570312 222.396484375 283.684570312 c 0
222.255859375 0.1162109375 m 0
 221.1015625 0.0908203125 219.947265625 0.0791015625 218.79296875 0.0791015625 c 0
 173.956054688 0.0791015625 129.453125 18.9443359375 98.255859375 51.1162109375 c 0
 62.642578125 82.87890625 47 125.34765625 47 168.283203125 c 0
 47 258.19140625 115.594726562 350.149414062 213.05859375 350.149414062 c 0
 214.12109375 350.149414062 215.186523438 350.137695312 216.255859375 350.116210938 c 2
 330 350.116210938 l 1
 330 650 l 5
 436 650 542 650 648 650 c 5
 648 583 l 5
 397.255859375 583 l 5
 397.255859375 350.116210938 l 1
 582.255859375 350.116210938 l 1
 582.255859375 283.116210938 l 1
 397.255859375 283.116210938 l 1
 397.255859375 194.116210938 l 2
 397.719726562 189.06640625 397.947265625 184.010742188 397.947265625 178.96484375 c 0
 397.947265625 87.98828125 324.01953125 0 228.288085938 0 c 0
 226.287109375 0 224.275390625 0.0380859375 222.255859375 0.1162109375 c 0
EndSplineSet
Validated: 524289
LCarets2: 1 364
Ligature2: "+VAhbVzB4MG5/bmPb in +MOkwxjDzZYdbVwAA lookup 0-1" h i
EndChar

StartChar: h_a
Encoding: 365 -1 113
Width: 623
Flags: W
HStem: 0 67<337.659 462.579> 283 67<39 224 335.891 462.866> 583 67<291 542>
VStem: 224 67<112.641 237.994 350 583> 507 67<111.37 239.171>
LayerCount: 2
Fore
SplineSet
398 67 m 2
 403 67 l 2
 459 67 507 119 507 174 c 0
 507 240 452 284 399 284 c 0
 338 284 291 231 291 173 c 0
 291 116 340 67 398 67 c 2
402 0 m 2
 393 0 l 2
 297 0 223 88 223 179 c 0
 223 184 224 189 224 194 c 2
 224 283 l 1
 39 283 l 1
 39 350 l 1
 224 350 l 1
 224 450 224 550 224 650 c 1
 330 650 436 650 542 650 c 1
 542 583 l 1
 291 583 l 1
 291 350 l 1
 408 350 l 2
 505 350 574 258 574 168 c 0
 574 125 559 83 523 51 c 0
 492 19 447 0 402 0 c 2
EndSplineSet
Validated: 1
LCarets2: 1 260
Ligature2: "+VAhbVzB4MG5/bmPb in +MOkwxjDzZYdbVwAA lookup 0-1" h a
EndChar

StartChar: h_u
Encoding: 366 -1 114
Width: 592
Flags: W
HStem: 0 67<177.98 305.091 379 548> 283 67<177.891 305.451> 583 67<133 384>
VStem: 66 67<111.764 237.842 312 583> 350 67<110.831 238.643>
LayerCount: 2
Fore
SplineSet
133 174 m 0
 133 120.774414062 177.326171875 67 240 67 c 0
 304 67 350 118 350 175 c 0
 350 228.272460938 306.802734375 279.733398438 248 283 c 1
 241 283 l 2
 180 283 133 231 133 174 c 0
548 0 m 1
 237 0 l 1
 142 2 66 80 66 175 c 2
 66 650 l 1
 172 650 278 650 384 650 c 1
 384 583 l 1
 133 583 l 1
 133 312 l 1
 163 336 200 350 241 350 c 0
 338 350 417 272 417 175 c 0
 417 134 403 97 379 67 c 1
 548 67 l 1
 548 0 l 1
EndSplineSet
Validated: 524289
LCarets2: 1 97
Ligature2: "+VAhbVzB4MG5/bmPb in +MOkwxjDzZYdbVwAA lookup 0-1" h u
EndChar

StartChar: h_o
Encoding: 367 -1 115
Width: 826
Flags: W
HStem: 0 67<48 217 291.004 418.02> 283 67<290.651 418.076> 583 67<530 781>
VStem: 179 66.875<111.67 239.067> 463 67<111.865 237.984 312 583>
LayerCount: 2
Fore
SplineSet
348 283 m 1
 291.029296875 279.834960938 245.875 230.334960938 245.875 174.712890625 c 0
 245.875 118.15625 292.315429688 67 356 67 c 0
 417.469726562 67 462.908203125 119.147460938 462.908203125 174.296875 c 0
 462.908203125 231.185546875 415.997070312 283 355 283 c 2
 348 283 l 1
48 0 m 1
 48 67 l 1
 217 67 l 1
 193 97 179 134 179 175 c 0
 179 272 258 350 355 350 c 0
 396 350 433 336 463 312 c 1
 463 424.666992188 463 537.333007812 463 650 c 1
 569 650 675 650 781 650 c 1
 781 583 l 1
 530 583 l 1
 530 447 530 311 530 175 c 0
 530 80 454 2 359 0 c 1
 48 0 l 1
EndSplineSet
Validated: 524289
LCarets2: 1 502
Ligature2: "+VAhbVzB4MG5/bmPb in +MOkwxjDzZYdbVwAA lookup 0-1" h o
EndChar

StartChar: h_e
Encoding: 368 -1 116
Width: 551
Flags: W
HStem: 0 21G<189 256> 37 68<152.587 189 256 291.883> 311 69<256 291.883> 583 67<256 507>
VStem: 46 68<143.596 273.622> 189 67<0 41.5215 106 311 376.462 583> 329 67<141.692 273.55>
LayerCount: 2
Fore
SplineSet
256 583 m 1
 256 515.333007812 256 447.666992188 256 380 c 1
 336 364 396 293 396 209 c 0
 396 124 336 53 256 37 c 1
 256 24.6669921875 256 12.3330078125 256 0 c 1
 189 0 l 1
 189 12.3330078125 189 24.6669921875 189 37 c 1
 108 52 46 123 46 209 c 0
 46 294 108 366 189 381 c 1
 189 470.666992188 189 560.333007812 189 650 c 1
 295 650 401 650 507 650 c 1
 507 583 l 1
 256 583 l 1
256 311 m 1
 256 106 l 1
 305 122 329 165 329 208 c 0
 329 251 305 295 256 311 c 1
189 312 m 1
 138 295 114 253 114 210 c 0
 114 165 140 120 189 105 c 1
 189 312 l 1
EndSplineSet
Validated: 524289
LCarets2: 1 234
Ligature2: "+VAhbVzB4MG5/bmPb in +MOkwxjDzZYdbVwAA lookup 0-1" h e
EndChar

StartChar: m_i
Encoding: 379 -1 127
Width: 706
Flags: W
HStem: 0.116211 67<158.485 287.023> 283.685 66.4648<161.542 285.499 397.256 582.256> 434 67<397.256 581> 583 67<330 581>
VStem: 47 66.8242<111.329 239.079> 330.194 67.7529<112.621 238.206 350.116 434> 581 67<501 583>
LayerCount: 2
Fore
SplineSet
222.396484375 283.684570312 m 0
 169.057617188 283.684570312 113.82421875 239.428710938 113.82421875 173.779296875 c 0
 113.82421875 118.494140625 162.111328125 67.0693359375 218.33203125 67.0693359375 c 0
 219.303710938 67.0693359375 220.279296875 67.0849609375 221.255859375 67.1162109375 c 0
 222.02734375 67.0986328125 222.798828125 67.0888671875 223.569335938 67.0888671875 c 0
 281.661132812 67.0888671875 330.194335938 116.111328125 330.194335938 173.296875 c 0
 330.194335938 231.614257812 283.540039062 283.684570312 222.396484375 283.684570312 c 0
222.255859375 0.1162109375 m 0
 221.1015625 0.0908203125 219.947265625 0.0791015625 218.79296875 0.0791015625 c 0
 173.956054688 0.0791015625 129.453125 18.9443359375 98.255859375 51.1162109375 c 0
 62.642578125 82.87890625 47 125.34765625 47 168.283203125 c 0
 47 258.19140625 115.594726562 350.149414062 213.05859375 350.149414062 c 0
 214.12109375 350.149414062 215.186523438 350.137695312 216.255859375 350.116210938 c 2
 330 350.116210938 l 1
 330 501 l 1
 581 501 l 1
 581 583 l 1
 330 583 l 1
 330 650 l 1
 648 650 l 1
 648 434 l 1
 397.255859375 434 l 1
 397.255859375 350.116210938 l 1
 582.255859375 350.116210938 l 1
 582.255859375 283.116210938 l 1
 397.255859375 283.116210938 l 1
 397.255859375 194.116210938 l 2
 397.719726562 189.06640625 397.947265625 184.010742188 397.947265625 178.96484375 c 0
 397.947265625 87.98828125 324.01953125 0 228.288085938 0 c 0
 226.287109375 0 224.275390625 0.0380859375 222.255859375 0.1162109375 c 0
EndSplineSet
Validated: 524289
LCarets2: 1 372
Ligature2: "+VAhbVzB4MG5/bmPb in +MOkwxjDzZYdbVwAA lookup 0-1" m i
EndChar

StartChar: m_a
Encoding: 380 -1 128
Width: 624
Flags: W
HStem: 0 67<337.659 462.579> 283 67<39 224 335.891 462.866> 434 67<291 475> 583 67<224 475>
VStem: 224 67<112.641 237.994 350 434> 475 67<501 583> 507 67<111.37 239.171>
LayerCount: 2
Fore
SplineSet
398 67 m 6xfa
 403 67 l 6
 459 67 507 119 507 174 c 4
 507 240 452 284 399 284 c 4
 338 284 291 231 291 173 c 4
 291 116 340 67 398 67 c 6xfa
402 0 m 6
 393 0 l 6
 297 0 223 88 223 179 c 4
 223 184 224 189 224 194 c 6
 224 283 l 5
 39 283 l 5
 39 350 l 5
 224 350 l 5
 224 501 l 5
 475 501 l 5
 475 583 l 5
 224 583 l 5
 224 650 l 5
 542 650 l 5
 542 434 l 5xfc
 291 434 l 5
 291 350 l 5
 408 350 l 6
 505 350 574 258 574 168 c 4
 574 125 559 83 523 51 c 4
 492 19 447 0 402 0 c 6
EndSplineSet
Validated: 1
LCarets2: 1 274
Ligature2: "+VAhbVzB4MG5/bmPb in +MOkwxjDzZYdbVwAA lookup 0-1" m a
EndChar

StartChar: m_u
Encoding: 381 -1 129
Width: 591
Flags: W
HStem: 0 67<177.98 305.091 379 548> 283 67<177.891 305.451> 434 67<133 317> 583 67<66 317>
VStem: 66 67<111.764 237.842 312 434> 317 67<501 583> 350 67<110.831 238.643>
LayerCount: 2
Fore
SplineSet
133 174 m 4xfa
 133 120.774414062 177.326171875 67 240 67 c 4
 304 67 350 118 350 175 c 4
 350 228.272460938 306.802734375 279.733398438 248 283 c 5
 241 283 l 6
 180 283 133 231 133 174 c 4xfa
548 0 m 5
 237 0 l 5
 142 2 66 80 66 175 c 6
 66 501 l 5
 317 501 l 5
 317 583 l 5
 66 583 l 5
 66 650 l 5
 384 650 l 5
 384 434 l 5xfc
 133 434 l 5
 133 312 l 5
 163 336 200 350 241 350 c 4
 338 350 417 272 417 175 c 4
 417 134 403 97 379 67 c 5
 548 67 l 5
 548 0 l 5
EndSplineSet
Validated: 524289
LCarets2: 1 100
Ligature2: "+VAhbVzB4MG5/bmPb in +MOkwxjDzZYdbVwAA lookup 0-1" m u
EndChar

StartChar: m_o
Encoding: 382 -1 130
Width: 840
Flags: W
HStem: 0 67<48 217 291.004 418.02> 283 67<290.651 418.076> 434 67<530 714> 583 67<463 714>
VStem: 179 66.875<111.67 239.067> 463 67<111.865 237.984 312 434> 714 67<501 583>
LayerCount: 2
Fore
SplineSet
348 283 m 1
 291.029296875 279.834960938 245.875 230.334960938 245.875 174.712890625 c 0
 245.875 118.15625 292.315429688 67 356 67 c 0
 417.469726562 67 462.908203125 119.147460938 462.908203125 174.296875 c 0
 462.908203125 231.185546875 415.997070312 283 355 283 c 2
 348 283 l 1
48 0 m 1
 48 67 l 1
 217 67 l 1
 193 97 179 134 179 175 c 0
 179 272 258 350 355 350 c 0
 396 350 433 336 463 312 c 1
 463 375 463 438 463 501 c 1
 714 501 l 1
 714 583 l 1
 463 583 l 1
 463 650 l 1
 781 650 l 1
 781 434 l 1
 530 434 l 1
 530 347.666992188 530 261.333007812 530 175 c 0
 530 80 454 2 359 0 c 1
 48 0 l 1
EndSplineSet
Validated: 524289
LCarets2: 1 498
Ligature2: "+VAhbVzB4MG5/bmPb in +MOkwxjDzZYdbVwAA lookup 0-1" m o
EndChar

StartChar: m_e
Encoding: 383 -1 131
Width: 565
Flags: W
HStem: 0 21G<189 256> 37 68<152.587 189 256 291.883> 311 69<256 291.883> 434 67<256 440> 583 67<189 440>
VStem: 46 68<143.596 273.622> 189 67<0 41.5215 106 311 376.462 434> 329 67<141.692 273.55> 440 67<501 583>
LayerCount: 2
Fore
SplineSet
256 380 m 1
 336 364 396 293 396 209 c 0
 396 124 336 53 256 37 c 1
 256 0 l 1
 189 0 l 1
 189 37 l 1
 108 52 46 123 46 209 c 0
 46 294 108 366 189 381 c 1
 189 421 189 461 189 501 c 1
 440 501 l 1
 440 583 l 1
 189 583 l 1
 189 650 l 1
 507 650 l 1
 507 434 l 1
 256 434 l 1
 256 380 l 1
256 311 m 1
 256 106 l 1
 305 122 329 165 329 208 c 0
 329 251 305 295 256 311 c 1
189 312 m 1
 138 295 114 253 114 210 c 0
 114 165 140 120 189 105 c 1
 189 312 l 1
EndSplineSet
Validated: 1
LCarets2: 1 211
Ligature2: "+VAhbVzB4MG5/bmPb in +MOkwxjDzZYdbVwAA lookup 0-1" m e
EndChar

StartChar: r_i
Encoding: 394 -1 142
Width: 627
Flags: W
HStem: 0.116211 67<158.485 287.023> 283.685 66.4648<161.542 285.499 397.256 582.256> 440 67<267 330 397 463> 582 68<397 463>
VStem: 47 66.8242<111.329 239.079> 200 67<507 652> 330.194 67.7529<112.621 238.206 350 440 507 582> 463 67<507 582>
LayerCount: 2
Fore
SplineSet
222.396484375 283.684570312 m 0
 169.057617188 283.684570312 113.82421875 239.428710938 113.82421875 173.779296875 c 0
 113.82421875 118.494140625 162.111328125 67.0693359375 218.33203125 67.0693359375 c 0
 219.303710938 67.0693359375 220.279296875 67.0849609375 221.255859375 67.1162109375 c 0
 222.02734375 67.0986328125 222.798828125 67.0888671875 223.569335938 67.0888671875 c 0
 281.661132812 67.0888671875 330.194335938 116.111328125 330.194335938 173.296875 c 0
 330.194335938 231.614257812 283.540039062 283.684570312 222.396484375 283.684570312 c 0
222.255859375 0.1162109375 m 0
 221.1015625 0.0908203125 219.947265625 0.0791015625 218.79296875 0.0791015625 c 0
 173.956054688 0.0791015625 129.453125 18.9443359375 98.255859375 51.1162109375 c 0
 62.642578125 82.87890625 47 125.34765625 47 168.283203125 c 0
 47 258.19140625 115.594726562 350.149414062 213.05859375 350.149414062 c 0
 214.12109375 350.149414062 215.186523438 350.116210938 216.255859375 350.116210938 c 0
 254.255859375 350.116210938 292 350 330 350 c 1
 330 380 330 410 330 440 c 1
 200 440 l 1
 200 652 l 1
 267 652 l 1
 267 507 l 1
 288 507 309 507 330 507 c 1
 330 650 l 1
 530 650 l 1
 530 440 l 1
 397 440 l 1
 397 410 397 380 397 350 c 1
 582.255859375 350.116210938 l 1
 582.255859375 283.116210938 l 1
 397.255859375 283.116210938 l 1
 397.255859375 194.116210938 l 2
 397.719726562 189.06640625 397.947265625 184.010742188 397.947265625 178.96484375 c 4
 397.947265625 87.98828125 324.01953125 0 228.288085938 0 c 0
 226.287109375 0 224.275390625 0.0380859375 222.255859375 0.1162109375 c 0
463 507 m 1
 463 532 463 557 463 582 c 1
 397 582 l 1
 397 507 l 1
 419 507 441 507 463 507 c 1
EndSplineSet
Validated: 524289
LCarets2: 1 362
Ligature2: "+VAhbVzB4MG5/bmPb in +MOkwxjDzZYdbVwAA lookup 0-1" r i
EndChar

StartChar: r_a
Encoding: 395 -1 143
Width: 622
Flags: W
HStem: 0 67<336.659 461.579> 283 67<38 223 334.891 461.866> 440 67<160 223 290 356> 582 68<290 356>
VStem: 93 67<507 652> 223 67<112.641 237.994 350 440 507 582> 356 67<507 582> 506 67<111.37 239.171>
LayerCount: 2
Fore
SplineSet
397 67 m 2
 402 67 l 2
 458 67 506 119 506 174 c 0
 506 240 451 284 398 284 c 0
 337 284 290 231 290 173 c 0
 290 116 339 67 397 67 c 2
401 0 m 2
 392 0 l 2
 296 0 222 88 222 179 c 0
 222 184 223 189 223 194 c 0
 223 223.666992188 223 253.333007812 223 283 c 1
 38 283 l 1
 38 350 l 1
 223 350 l 1
 223 440 l 1
 93 440 l 1
 93 652 l 1
 160 652 l 1
 160 507 l 1
 181 507 202 507 223 507 c 1
 223 554.666992188 223 602.333007812 223 650 c 1
 423 650 l 1
 423 440 l 1
 290 440 l 1
 290 350 l 1
 407 350 l 2
 504 350 573 258 573 168 c 0
 573 125 558 83 522 51 c 0
 491 19 446 0 401 0 c 2
356 507 m 1
 356 532 356 557 356 582 c 1
 290 582 l 1
 290 557 290 532 290 507 c 1
 312 507 334 507 356 507 c 1
EndSplineSet
Validated: 524289
LCarets2: 1 247
Ligature2: "+VAhbVzB4MG5/bmPb in +MOkwxjDzZYdbVwAA lookup 0-1" r a
EndChar

StartChar: r_u
Encoding: 396 -1 144
Width: 709
Flags: W
HStem: 0 67<294.98 422.091 496 665> 283 67<294.891 422.451> 440 67<120 183 250 316> 582 68<250 316>
VStem: 53 67<507 652> 183 67<111.764 237.842 312 440 507 582> 316 67<507 582> 467 67<110.831 238.643>
LayerCount: 2
Fore
SplineSet
250 174 m 0
 250 120.774414062 294.326171875 67 357 67 c 0
 421 67 467 118 467 175 c 0
 467 228.272460938 423.802734375 279.733398438 365 283 c 1
 358 283 l 2
 297 283 250 231 250 174 c 0
665 0 m 1
 354 0 l 1
 259 2 183 80 183 175 c 0
 183 263.333007812 183 351.666992188 183 440 c 1
 53 440 l 1
 53 652 l 1
 120 652 l 1
 120 507 l 1
 141 507 162 507 183 507 c 1
 183 554.666992188 183 602.333007812 183 650 c 1
 383 650 l 1
 383 440 l 1
 250 440 l 1
 250 312 l 1
 280 336 317 350 358 350 c 0
 455 350 534 272 534 175 c 0
 534 134 520 97 496 67 c 1
 665 67 l 1
 665 0 l 1
316 507 m 1
 316 532 316 557 316 582 c 1
 250 582 l 1
 250 557 250 532 250 507 c 1
 272 507 294 507 316 507 c 1
EndSplineSet
Validated: 524289
LCarets2: 1 222
Ligature2: "+VAhbVzB4MG5/bmPb in +MOkwxjDzZYdbVwAA lookup 0-1" r u
EndChar

StartChar: r_o
Encoding: 397 -1 145
Width: 722
Flags: W
HStem: 0 67<48 217 291.004 418.02> 283 67<290.651 418.076> 440 67<400 463 530 596> 582 68<530 596>
VStem: 179 66.875<111.67 239.067> 333 67<507 652> 463 67<111.865 237.984 312 440 507 582> 596 67<507 582>
LayerCount: 2
Fore
SplineSet
348 283 m 1
 291.029296875 279.834960938 245.875 230.334960938 245.875 174.712890625 c 0
 245.875 118.15625 292.315429688 67 356 67 c 0
 417.469726562 67 462.908203125 119.147460938 462.908203125 174.296875 c 0
 462.908203125 231.185546875 415.997070312 283 355 283 c 2
 348 283 l 1
48 0 m 1
 48 67 l 1
 217 67 l 1
 193 97 179 134 179 175 c 0
 179 272 258 350 355 350 c 0
 396 350 433 336 463 312 c 1
 463 440 l 1
 333 440 l 1
 333 652 l 1
 400 652 l 1
 400 507 l 1
 421 507 442 507 463 507 c 1
 463 554.666992188 463 602.333007812 463 650 c 1
 663 650 l 1
 663 440 l 1
 530 440 l 1
 530 351.666992188 530 263.333007812 530 175 c 0
 530 80 454 2 359 0 c 1
 48 0 l 1
596 507 m 1
 596 532 596 557 596 582 c 1
 530 582 l 1
 530 557 530 532 530 507 c 1
 552 507 574 507 596 507 c 1
EndSplineSet
Validated: 524289
LCarets2: 1 491
Ligature2: "+VAhbVzB4MG5/bmPb in +MOkwxjDzZYdbVwAA lookup 0-1" r o
EndChar

StartChar: r_e
Encoding: 398 -1 146
Width: 465
Flags: W
HStem: 0 21G<198 265> 37 68<161.587 198 265 300.883> 311 69<265 300.883> 440 67<135 198 265 331> 582 68<265 331>
VStem: 55 68<143.596 273.622> 68 67<507 652> 198 67<0 41.5215 106 311 376.462 440 507 582> 331 67<507 582> 338 67<141.692 273.55>
LayerCount: 2
Fore
SplineSet
331 507 m 1xf980
 331 532 331 557 331 582 c 1
 265 582 l 1
 265 507 l 1
 287 507 309 507 331 507 c 1xf980
265 311 m 1
 265 106 l 1
 314 122 338 165 338 208 c 0xf940
 338 251 314 295 265 311 c 1
265 380 m 1
 345 364 405 293 405 209 c 0
 405 124 345 53 265 37 c 1
 265 0 l 1
 198 0 l 1
 198 37 l 1
 117 52 55 123 55 209 c 0xfd40
 55 294 117 366 198 381 c 1
 198 440 l 1
 68 440 l 1
 68 652 l 1
 135 652 l 1
 135 507 l 1
 156 507 177 507 198 507 c 1
 198 554.666992188 198 602.333007812 198 650 c 1
 398 650 l 1
 398 440 l 1xfb80
 265 440 l 1
 265 380 l 1
198 312 m 1
 147 295 123 253 123 210 c 0
 123 165 149 120 198 105 c 1
 198 312 l 1
EndSplineSet
Validated: 524289
LCarets2: 1 217
Ligature2: "+VAhbVzB4MG5/bmPb in +MOkwxjDzZYdbVwAA lookup 0-1" r e
EndChar

StartChar: p_i
Encoding: 409 -1 157
Width: 629
Flags: W
HStem: 0.116211 67<158.485 287.023> 283.685 66.4648<161.542 285.499 397.256 582.256> 609 65<310.152 421.081>
VStem: 47 66.8242<111.329 239.079> 217 66<471.227 581.348> 330.194 67.7529<112.621 238.206 350.116 390.425> 448 63<471.261 581.348>
LayerCount: 2
Fore
SplineSet
222.396484375 283.684570312 m 0
 169.057617188 283.684570312 113.82421875 239.428710938 113.82421875 173.779296875 c 0
 113.82421875 118.494140625 162.111328125 67.0693359375 218.33203125 67.0693359375 c 0
 219.303710938 67.0693359375 220.279296875 67.0849609375 221.255859375 67.1162109375 c 0
 222.02734375 67.0986328125 222.798828125 67.0888671875 223.569335938 67.0888671875 c 0
 281.661132812 67.0888671875 330.194335938 116.111328125 330.194335938 173.296875 c 0
 330.194335938 231.614257812 283.540039062 283.684570312 222.396484375 283.684570312 c 0
222.255859375 0.1162109375 m 0
 221.1015625 0.0908203125 219.947265625 0.0791015625 218.79296875 0.0791015625 c 0
 173.956054688 0.0791015625 129.453125 18.9443359375 98.255859375 51.1162109375 c 0
 62.642578125 82.87890625 47 125.34765625 47 168.283203125 c 0
 47 258.19140625 115.594726562 350.149414062 213.05859375 350.149414062 c 0
 214.12109375 350.149414062 215.186523438 350.137695312 216.255859375 350.116210938 c 2
 330 350.116210938 l 1
 330 384 l 1
 265 399 217 457 217 527 c 0
 217 608 283 674 364 674 c 0
 445 674 511 608 511 527 c 0
 511 457.091796875 462.12890625 399.15234375 397.255859375 384.059570312 c 1
 397.255859375 350.116210938 l 1
 582.255859375 350.116210938 l 1
 582.255859375 283.116210938 l 1
 397.255859375 283.116210938 l 1
 397.255859375 194.116210938 l 2
 397.719726562 189.06640625 397.947265625 184.010742188 397.947265625 178.96484375 c 0
 397.947265625 87.98828125 324.01953125 0 228.288085938 0 c 0
 226.287109375 0 224.275390625 0.0380859375 222.255859375 0.1162109375 c 0
366 444 m 0
 411 444 448 481 448 526 c 0
 448 572 411 609 366 609 c 0
 320 609 283 572 283 526 c 0
 283 481 320 444 366 444 c 0
EndSplineSet
Validated: 524289
LCarets2: 1 367
Ligature2: "+VAhbVzB4MG5/bmPb in +MOkwxjDzZYdbVwAA lookup 0-1" p i
EndChar

StartChar: p_a
Encoding: 410 -1 158
Width: 622
Flags: W
HStem: 0 67<333.45 461.579> 283 67<38 223 334.891 461.866> 609 65<203.152 314.081>
VStem: 110 66<471.227 581.348> 223 67<112.641 237.994 350 390.425> 341 63<471.227 581.348> 506 67<111.37 239.171>
LayerCount: 2
Fore
SplineSet
397 67 m 2
 402 67 l 2
 458 67 506 119 506 174 c 0
 506 240 451 284 398 284 c 0
 337 284 290 231 290 173 c 0
 290 116 339 67 397 67 c 2
401 0 m 2
 392 0 l 2
 296 0 223 88 223 179 c 0
 223 213.666992188 223 248.333007812 223 283 c 1
 38 283 l 1
 38 350 l 1
 223 350 l 1
 223 384 l 1
 158 399 110 457 110 527 c 0
 110 608 176 674 257 674 c 0
 338 674 404 608 404 527 c 0
 404 457 355 399 290 384 c 1
 290 350 l 1
 407 350 l 2
 504 350 573 258 573 168 c 0
 573 125 558 83 522 51 c 0
 491 19 446 0 401 0 c 2
259 444 m 0
 304 444 341 481 341 526 c 0
 341 572 304 609 259 609 c 0
 213 609 176 572 176 526 c 0
 176 481 213 444 259 444 c 0
EndSplineSet
Validated: 524289
LCarets2: 1 269
Ligature2: "+VAhbVzB4MG5/bmPb in +MOkwxjDzZYdbVwAA lookup 0-1" p a
EndChar

StartChar: p_u
Encoding: 411 -1 159
Width: 685
Flags: W
HStem: 0 67<270.98 398.091 472 641> 283 67<270.891 398.451> 609 65<139.152 250.081>
VStem: 46 66<471.227 581.348> 159 67<111.764 237.842 312 390.425> 277 63<471.227 581.348> 443 67<110.831 238.643>
LayerCount: 2
Fore
SplineSet
226 174 m 0
 226 120.774414062 270.326171875 67 333 67 c 0
 397 67 443 118 443 175 c 0
 443 228.272460938 399.802734375 279.733398438 341 283 c 1
 334 283 l 2
 273 283 226 231 226 174 c 0
641 0 m 1
 330 0 l 1
 235 2 159 80 159 175 c 0
 159 244.666992188 159 314.333007812 159 384 c 1
 94 399 46 457 46 527 c 0
 46 608 112 674 193 674 c 0
 274 674 340 608 340 527 c 0
 340 457 291 399 226 384 c 1
 226 312 l 1
 256 336 293 350 334 350 c 0
 431 350 510 272 510 175 c 0
 510 134 496 97 472 67 c 1
 641 67 l 1
 641 0 l 1
195 444 m 0
 240 444 277 481 277 526 c 0
 277 572 240 609 195 609 c 0
 149 609 112 572 112 526 c 0
 112 481 149 444 195 444 c 0
EndSplineSet
Validated: 524289
LCarets2: 1 196
Ligature2: "+VAhbVzB4MG5/bmPb in +MOkwxjDzZYdbVwAA lookup 0-1" p u
EndChar

StartChar: p_o
Encoding: 412 -1 160
Width: 699
Flags: W
HStem: 0 67<48 217 291.004 418.02> 283 67<290.651 418.076> 609 65<443.152 554.081>
VStem: 179 66.875<111.67 239.067> 350 66<471.227 581.348> 463 67<111.865 237.984 312 390.425> 581 63<471.227 581.348>
LayerCount: 2
Fore
SplineSet
348 283 m 1
 291.029296875 279.834960938 245.875 230.334960938 245.875 174.712890625 c 0
 245.875 118.15625 292.315429688 67 356 67 c 0
 417.469726562 67 462.908203125 119.147460938 462.908203125 174.296875 c 0
 462.908203125 231.185546875 415.997070312 283 355 283 c 2
 348 283 l 1
48 0 m 1
 48 67 l 1
 217 67 l 1
 193 97 179 134 179 175 c 0
 179 272 258 350 355 350 c 0
 396 350 433 336 463 312 c 1
 463 336 463 360 463 384 c 1
 398 399 350 457 350 527 c 0
 350 608 416 674 497 674 c 0
 578 674 644 608 644 527 c 0
 644 457 595 399 530 384 c 1
 530 175 l 2
 530 80 454 2 359 0 c 1
 48 0 l 1
499 444 m 0
 544 444 581 481 581 526 c 0
 581 572 544 609 499 609 c 0
 453 609 416 572 416 526 c 0
 416 481 453 444 499 444 c 0
EndSplineSet
Validated: 524289
LCarets2: 1 498
Ligature2: "+VAhbVzB4MG5/bmPb in +MOkwxjDzZYdbVwAA lookup 0-1" p o
EndChar

StartChar: p_e
Encoding: 413 -1 161
Width: 449
Flags: W
HStem: 0 21G<189 256> 37 68<152.587 189 256 291.883> 311 69<256 291.883> 609 65<169.152 280.081>
VStem: 46 68<143.596 273.622> 76 66<471.227 581.348> 189 67<0 41.5215 106 311 376.462 390.425> 307 63<471.227 581.348> 329 67<141.692 273.55>
LayerCount: 2
Fore
SplineSet
225 444 m 0xf7
 270 444 307 481 307 526 c 0
 307 572 270 609 225 609 c 0
 179 609 142 572 142 526 c 0
 142 481 179 444 225 444 c 0xf7
256 380 m 1
 336 364 396 293 396 209 c 0
 396 124 336 53 256 37 c 1
 256 0 l 1
 189 0 l 1
 189 37 l 1
 108 52 46 123 46 209 c 0xfa80
 46 294 108 366 189 381 c 1
 189 384 l 1
 124 399 76 457 76 527 c 0
 76 608 142 674 223 674 c 0
 304 674 370 608 370 527 c 0
 370 457 321 399 256 384 c 1
 256 380 l 1
256 311 m 1
 256 106 l 1
 305 122 329 165 329 208 c 0
 329 251 305 295 256 311 c 1
189 312 m 1
 138 295 114 253 114 210 c 0
 114 165 140 120 189 105 c 1
 189 312 l 1
EndSplineSet
Validated: 1
LCarets2: 1 196
Ligature2: "+VAhbVzB4MG5/bmPb in +MOkwxjDzZYdbVwAA lookup 0-1" p e
EndChar

StartChar: w_i
Encoding: 439 -1 187
Width: 615
VWidth: 0
Flags: W
HStem: -199 33<452.117 526.495> -63 33<452.189 526.931> 0 21G<458 525> 325 67<285.651 413.076> 608 67<43 212 286.004 413.02>
VStem: 174 66.875<435.933 563.33> 405 33<-150.623 -77.1431 -48 -29> 458 67<0 363 437.016 563.134> 542 32<-149.005 -78.8774 -48 -28>
LayerCount: 2
Fore
SplineSet
542 -28 m 5
 574 -28 l 5
 574 -114 l 6
 574 -161 536 -199 490 -199 c 4
 444 -199 407 -162 405 -117 c 5
 405 -29 l 5
 438 -29 l 5
 438 -48 l 5
 452 -36 470 -30 490 -30 c 4
 509 -30 527 -36 542 -48 c 5
 542 -28 l 5
489 -63 m 4
 461 -63 438 -86 438 -114 c 4
 438 -142 461 -166 489 -166 c 4
 518 -166 541 -142 541 -114 c 4
 541 -86 518 -63 489 -63 c 4
43 675 m 1
 354 675 l 1
 449 673 525 595 525 500 c 2
 525 0 l 1
 458 0 l 1
 458 363 l 1
 428 339 391 325 350 325 c 0
 253 325 174 403 174 500 c 0
 174 541 188 578 212 608 c 1
 43 608 l 1
 43 675 l 1
457.908203125 500.703125 m 0
 457.908203125 555.850585938 412.470703125 608 351 608 c 0
 287.315429688 608 240.875 556.84375 240.875 500.287109375 c 0
 240.875 444.665039062 286.029296875 395.165039062 343 392 c 1
 350 392 l 2
 410.997070312 392 457.908203125 443.814453125 457.908203125 500.703125 c 0
EndSplineSet
Validated: 524289
LCarets2: 1 0
Ligature2: "+VAhbVzB4MG5/bmPb in +MOkwxjDzZYdbVwAA lookup 0-1" w i
EndChar

StartChar: w_a
Encoding: 440 -1 188
Width: 618
VWidth: 0
Flags: W
HStem: -199 33<84.1172 158.495> -63 33<84.1895 158.931> 0 21G<88 156> 312 64<198.89 330.833> 583 65<201.457 332.348 404 574>
VStem: 37 33<-150.623 -77.1431 -48 -29> 88 68<0 348 417.458 540.488> 174 32<-149.005 -78.8774 -48 -28> 374.896 67.1045<420.914 539.866>
LayerCount: 2
Fore
SplineSet
174 -28 m 5
 206 -28 l 5
 206 -114 l 6
 206 -161 168 -199 122 -199 c 4
 76 -199 39 -162 37 -117 c 5
 37 -29 l 5
 70 -29 l 5
 70 -48 l 5
 84 -36 102 -30 122 -30 c 4
 141 -30 159 -36 174 -48 c 5
 174 -28 l 5
121 -63 m 4
 93 -63 70 -86 70 -114 c 4
 70 -142 93 -166 121 -166 c 4
 150 -166 173 -142 173 -114 c 4
 173 -86 150 -63 121 -63 c 4
574 648 m 1
 574 583 l 1
 404 583 l 1
 428 555 442 519 442 480 c 0
 442 387 363 312 265 312 c 0
 224 312 186 325 156 348 c 1
 156 0 l 1
 88 0 l 1
 88 478 l 1
 89 478 l 1
 89 480 l 2
 89 571 165 645 261 648 c 1
 574 648 l 1
374.895507812 478.869140625 m 0
 374.895507812 531.922851562 327.458984375 583 269 583 c 2
 264 583 l 2
 210.370117188 583 155.884765625 541.10546875 155.884765625 480.243164062 c 0
 155.884765625 417.063476562 211.088867188 376 265 376 c 0
 337.5703125 376 374.895507812 437.091796875 374.895507812 478.869140625 c 0
EndSplineSet
Validated: 524289
LCarets2: 1 0
Ligature2: "+VAhbVzB4MG5/bmPb in +MOkwxjDzZYdbVwAA lookup 0-1" w a
EndChar

StartChar: w_u
Encoding: 441 -1 189
Width: 630
VWidth: 0
Flags: W
HStem: -199 33<219.117 293.495> -63 33<219.189 293.931> 0 21G<222 289> 357 67<38 223 334.891 461.866> 640 64.1348<334.485 461.579>
VStem: 172 33<-150.623 -77.1431 -48 -29> 223 67<0 357 469.006 596.759> 309 32<-149.005 -78.8774 -48 -28> 506 67<468.047 595.231>
LayerCount: 2
Fore
SplineSet
402 640 m 6
 397 640 l 6
 339 640 290 591 290 534 c 4
 290 476 337 423 398 423 c 4
 451 423 506 468 506 533 c 4
 506 589 458 640 402 640 c 6
573 539 m 4
 573 449 505 357 407 357 c 6
 290 357 l 5
 290 228 289 129 289 0 c 5
 222 0 l 5
 222 129 223 228 223 357 c 5
 38 357 l 5
 38 424 l 5
 223 424 l 5
 223 513 l 6
 223 518 222 523 222 528 c 4
 222 646.404296875 311.10546875 704.134765625 399.525390625 704.134765625 c 4
 486.594726562 704.134765625 573 648.153320312 573 539 c 4
256 -63 m 4
 228 -63 205 -86 205 -114 c 4
 205 -142 228 -166 256 -166 c 4
 285 -166 308 -142 308 -114 c 4
 308 -86 285 -63 256 -63 c 4
309 -28 m 5
 341 -28 l 5
 341 -114 l 6
 341 -161 303 -199 257 -199 c 4
 211 -199 174 -162 172 -117 c 5
 172 -29 l 5
 205 -29 l 5
 205 -48 l 5
 219 -36 237 -30 257 -30 c 4
 276 -30 294 -36 309 -48 c 5
 309 -28 l 5
EndSplineSet
Validated: 524289
LCarets2: 1 0
Ligature2: "+VAhbVzB4MG5/bmPb in +MOkwxjDzZYdbVwAA lookup 0-1" w u
EndChar

StartChar: w_o
Encoding: 442 -1 190
Width: 629
VWidth: 0
Flags: W
HStem: -199 33<326.117 400.495> -63 33<326.189 400.931> 0 21G<329.812 396.812> 343 67<157.724 285.055 396.812 581.812> 626 67<158.041 286.58>
VStem: 47 66.3799<454.049 581.796> 279 33<-150.623 -77.1431 -48 -29> 329.812 67<0 343 454.91 580.495> 416 32<-149.005 -78.8774 -48 -28>
LayerCount: 2
Fore
SplineSet
416 -28 m 1
 448 -28 l 1
 448 -114 l 2
 448 -161 410 -199 364 -199 c 0
 318 -199 281 -162 279 -117 c 1
 279 -29 l 1
 312 -29 l 1
 312 -48 l 1
 326 -36 344 -30 364 -30 c 0
 383 -30 401 -36 416 -48 c 1
 416 -28 l 1
363 -63 m 0
 335 -63 312 -86 312 -114 c 0
 312 -142 335 -166 363 -166 c 0
 392 -166 415 -142 415 -114 c 0
 415 -86 392 -63 363 -63 c 0
221.8125 693 m 0
 223.83203125 693.078125 225.842773438 693.116210938 227.844726562 693.116210938 c 0
 323.576171875 693.116210938 397.502929688 605.127929688 397.502929688 514.151367188 c 0
 397.502929688 509.10546875 397.276367188 504.049804688 396.8125 499 c 2
 396.8125 410 l 1
 581.8125 410 l 1
 581.8125 343 l 1
 396.8125 343 l 1
 396.8125 0 l 1
 329.8125 0 l 1
 329.8125 343 l 1
 291.8125 343 253.8125 343 215.8125 343 c 0
 214.743164062 342.978515625 213.677734375 342.966796875 212.615234375 342.966796875 c 0
 115.1484375 342.966796875 47 434.948242188 47 524.8671875 c 0
 47 567.791015625 62.529296875 610.245117188 97.8125 642 c 0
 129.008789062 674.171875 173.512695312 693.037109375 218.349609375 693.037109375 c 0
 219.50390625 693.037109375 220.658203125 693.025390625 221.8125 693 c 0
329.75 519.819335938 m 0
 329.75 577.001953125 281.21875 626.02734375 223.125976562 626.02734375 c 0
 222.35546875 626.02734375 221.583984375 626.017578125 220.8125 626 c 0
 219.834960938 626.03125 218.860351562 626.046875 217.887695312 626.046875 c 0
 161.66796875 626.046875 113.379882812 574.622070312 113.379882812 519.336914062 c 0
 113.379882812 453.685546875 168.616210938 409.431640625 221.953125 409.431640625 c 0
 283.094726562 409.431640625 329.75 461.5 329.75 519.819335938 c 0
EndSplineSet
Validated: 524289
LCarets2: 1 0
Ligature2: "+VAhbVzB4MG5/bmPb in +MOkwxjDzZYdbVwAA lookup 0-1" w o
EndChar

StartChar: w_e
Encoding: 443 -1 191
Width: 450
VWidth: 0
Flags: W
HStem: -199 33<184.117 258.495> -63 33<184.189 258.931> 0 21G<188 255> 302 69<151.587 188> 578 68<151.587 188> 663 20G<188 255>
VStem: 45 67.9531<408.527 539.449> 137 33<-150.623 -77.1431 -48 -29> 188 67<0 306.538 372 577 641.479 683> 274 32<-149.005 -78.8774 -48 -28> 328.125 66.875<409.443 539.5>
LayerCount: 2
Fore
SplineSet
274 -28 m 1
 306 -28 l 1
 306 -114 l 2
 306 -161 268 -199 222 -199 c 0
 176 -199 139 -162 137 -117 c 1
 137 -29 l 1
 170 -29 l 1
 170 -48 l 1
 184 -36 202 -30 222 -30 c 0
 241 -30 259 -36 274 -48 c 1
 274 -28 l 1
221 -63 m 0
 193 -63 170 -86 170 -114 c 0
 170 -142 193 -166 221 -166 c 0
 250 -166 273 -142 273 -114 c 0
 273 -86 250 -63 221 -63 c 0
188 683 m 1
 255 683 l 1
 255 646 l 1
 335 630 395 559 395 474 c 0
 395 390 335 319 255 303 c 1
 255 0 l 1
 188 0 l 1
 188 302 l 1
 107 317 45 389 45 474 c 0
 45 560 107 631 188 646 c 1
 188 683 l 1
188 578 m 1
 139.314453125 563.137695312 112.953125 518.073242188 112.953125 473.08984375 c 0
 112.953125 430.295898438 136.809570312 387.576171875 188 371 c 1
 188 578 l 1
255 577 m 1
 255 372 l 1
 303.874023438 388.458007812 328.125 431.528320312 328.125 474.54296875 c 0
 328.125 517.779296875 303.624023438 560.958984375 255 577 c 1
EndSplineSet
Validated: 524289
LCarets2: 1 0
Ligature2: "+VAhbVzB4MG5/bmPb in +MOkwxjDzZYdbVwAA lookup 0-1" w e
EndChar

StartChar: y_i
Encoding: 444 -1 192
Width: 596
VWidth: 0
Flags: W
HStem: -198 33<302.005 375.866> -61 33<182 273 302.125 375 406 496> 0 21G<458 525> 325 67<285.651 413.076> 608 67<43 212 286.004 413.02>
VStem: 174 66.875<435.933 563.33> 255 32<-149.688 -76.6098> 390 34<-150.557 -75.3722> 458 67<0 363 437.016 563.134>
LayerCount: 2
Fore
SplineSet
182 -28 m 1
 496 -28 l 1
 496 -61 l 1
 406 -61 l 1
 417 -75 424 -94 424 -113 c 0
 424 -160 386 -198 339 -198 c 0
 293 -198 255 -160 255 -113 c 0
 255 -94 262 -75 273 -61 c 1
 182 -61 l 1
 182 -28 l 1
339 -62 m 0
 310 -62 287 -85 287 -113 c 0
 287 -141 310 -165 339 -165 c 0
 367 -165 390 -141 390 -113 c 0
 390 -85 367 -62 339 -62 c 0
43 675 m 1
 354 675 l 1
 449 673 525 595 525 500 c 2
 525 0 l 1
 458 0 l 1
 458 363 l 1
 428 339 391 325 350 325 c 0
 253 325 174 403 174 500 c 0
 174 541 188 578 212 608 c 1
 43 608 l 1
 43 675 l 1
457.908203125 500.703125 m 0
 457.908203125 555.850585938 412.470703125 608 351 608 c 0
 287.315429688 608 240.875 556.84375 240.875 500.287109375 c 0
 240.875 444.665039062 286.029296875 395.165039062 343 392 c 1
 350 392 l 2
 410.997070312 392 457.908203125 443.814453125 457.908203125 500.703125 c 0
EndSplineSet
Validated: 524289
LCarets2: 1 0
Ligature2: "+VAhbVzB4MG5/bmPb in +MOkwxjDzZYdbVwAA lookup 0-1" y i
EndChar

StartChar: y_a
Encoding: 445 -1 193
Width: 596
VWidth: 0
Flags: W
HStem: -198 33<202.005 275.866> -61 33<82 173 202.125 275 306 396> 0 21G<66 134> 312 64<176.89 308.833> 583 65<179.457 310.348 382 552>
VStem: 66 68<0 348 417.458 540.488> 155 32<-149.688 -76.6098> 290 34<-150.557 -75.3722> 352.896 67.1045<420.914 539.866>
LayerCount: 2
Fore
SplineSet
82 -28 m 1
 396 -28 l 1
 396 -61 l 1
 306 -61 l 1
 317 -75 324 -94 324 -113 c 0
 324 -160 286 -198 239 -198 c 0
 193 -198 155 -160 155 -113 c 0
 155 -94 162 -75 173 -61 c 1
 82 -61 l 1
 82 -28 l 1
239 -62 m 0
 210 -62 187 -85 187 -113 c 0
 187 -141 210 -165 239 -165 c 0
 267 -165 290 -141 290 -113 c 0
 290 -85 267 -62 239 -62 c 0
552 648 m 1
 552 583 l 1
 382 583 l 1
 406 555 420 519 420 480 c 0
 420 387 341 312 243 312 c 0
 202 312 164 325 134 348 c 1
 134 0 l 1
 66 0 l 1
 66 478 l 1
 67 478 l 1
 67 480 l 2
 67 571 143 645 239 648 c 1
 552 648 l 1
352.895507812 478.869140625 m 0
 352.895507812 531.922851562 305.458984375 583 247 583 c 2
 242 583 l 2
 188.370117188 583 133.884765625 541.10546875 133.884765625 480.243164062 c 0
 133.884765625 417.063476562 189.088867188 376 243 376 c 0
 315.5703125 376 352.895507812 437.091796875 352.895507812 478.869140625 c 0
EndSplineSet
Validated: 524289
LCarets2: 1 0
Ligature2: "+VAhbVzB4MG5/bmPb in +MOkwxjDzZYdbVwAA lookup 0-1" y a
EndChar

StartChar: y_u
Encoding: 446 -1 194
Width: 630
VWidth: 0
Flags: W
HStem: -198 33<324.005 397.866> -61 33<204 295 324.125 397 428 518> 0 21G<222 289> 357 67<38 223 334.757 462.089> 640 67<333.233 461.77>
VStem: 223 67.0615<0 357 468.91 594.495> 277 32<-149.688 -76.6098> 412 34<-150.557 -75.3722> 506.432 66.8242<468.038 595.787>
LayerCount: 2
Fore
SplineSet
204 -28 m 1xfb80
 518 -28 l 1
 518 -61 l 1
 428 -61 l 1
 439 -75 446 -94 446 -113 c 0
 446 -160 408 -198 361 -198 c 0
 315 -198 277 -160 277 -113 c 0
 277 -94 284 -75 295 -61 c 1
 204 -61 l 1
 204 -28 l 1xfb80
361 -62 m 0
 332 -62 309 -85 309 -113 c 0
 309 -141 332 -165 361 -165 c 0
 389 -165 412 -141 412 -113 c 0
 412 -85 389 -62 361 -62 c 0
398 707 m 0
 399.154296875 707.025390625 400.30859375 707.037109375 401.462890625 707.037109375 c 0
 446.299804688 707.037109375 490.802734375 688.171875 522 656 c 0
 557.61328125 624.237304688 573.255859375 581.768554688 573.255859375 538.833007812 c 0
 573.255859375 448.924804688 504.661132812 356.966796875 407.197265625 356.966796875 c 0
 406.134765625 356.966796875 405.069335938 356.978515625 404 357 c 0
 366 357 328 357 290 357 c 1
 290 228 289 129 289 0 c 1
 222 0 l 1
 222 129 223 228 223 357 c 1
 38 357 l 1
 38 424 l 1
 223 424 l 1
 223 513 l 2xfd80
 222.536132812 518.049804688 222.30859375 523.10546875 222.30859375 528.151367188 c 0
 222.30859375 619.127929688 296.236328125 707.116210938 391.967773438 707.116210938 c 0
 393.96875 707.116210938 395.98046875 707.078125 398 707 c 0
397.859375 423.431640625 m 0
 451.198242188 423.431640625 506.431640625 467.6875 506.431640625 533.336914062 c 0
 506.431640625 588.622070312 458.14453125 640.046875 401.923828125 640.046875 c 0
 400.952148438 640.046875 399.9765625 640.03125 399 640 c 0
 398.228515625 640.017578125 397.45703125 640.02734375 396.686523438 640.02734375 c 0
 338.594726562 640.02734375 290.061523438 591.004882812 290.061523438 533.819335938 c 0
 290.061523438 475.501953125 336.715820312 423.431640625 397.859375 423.431640625 c 0
EndSplineSet
Validated: 524289
LCarets2: 1 0
Ligature2: "+VAhbVzB4MG5/bmPb in +MOkwxjDzZYdbVwAA lookup 0-1" y u
EndChar

StartChar: y_o
Encoding: 447 -1 195
Width: 628
VWidth: 0
Flags: W
HStem: -198 33<227.005 300.866> -61 33<107 198 227.125 300 331 421> 0 21G<328.812 395.812> 343 67<156.724 284.055 395.812 580.812> 626 67<157.041 285.58>
VStem: 46 66.3799<454.049 581.796> 180 32<-149.688 -76.6098> 315 34<-150.557 -75.3722> 328.812 67<0 343 454.91 580.495>
LayerCount: 2
Fore
SplineSet
107 -28 m 1xff
 421 -28 l 1
 421 -61 l 1
 331 -61 l 1
 342 -75 349 -94 349 -113 c 0
 349 -160 311 -198 264 -198 c 0
 218 -198 180 -160 180 -113 c 0
 180 -94 187 -75 198 -61 c 1
 107 -61 l 1
 107 -28 l 1xff
264 -62 m 0
 235 -62 212 -85 212 -113 c 0
 212 -141 235 -165 264 -165 c 0
 292 -165 315 -141 315 -113 c 0
 315 -85 292 -62 264 -62 c 0
220.8125 693 m 0
 222.83203125 693.078125 224.842773438 693.116210938 226.844726562 693.116210938 c 0
 322.576171875 693.116210938 396.502929688 605.127929688 396.502929688 514.151367188 c 0
 396.502929688 509.10546875 396.276367188 504.049804688 395.8125 499 c 2
 395.8125 410 l 1
 580.8125 410 l 1
 580.8125 343 l 1
 395.8125 343 l 1
 395.8125 0 l 1
 328.8125 0 l 1
 328.8125 343 l 1xfe80
 290.8125 343 252.8125 343 214.8125 343 c 0
 213.743164062 342.978515625 212.677734375 342.966796875 211.615234375 342.966796875 c 0
 114.1484375 342.966796875 46 434.948242188 46 524.8671875 c 0
 46 567.791015625 61.529296875 610.245117188 96.8125 642 c 0
 128.008789062 674.171875 172.512695312 693.037109375 217.349609375 693.037109375 c 0
 218.50390625 693.037109375 219.658203125 693.025390625 220.8125 693 c 0
328.75 519.819335938 m 0
 328.75 577.001953125 280.21875 626.02734375 222.125976562 626.02734375 c 0
 221.35546875 626.02734375 220.583984375 626.017578125 219.8125 626 c 0
 218.834960938 626.03125 217.860351562 626.046875 216.887695312 626.046875 c 0
 160.66796875 626.046875 112.379882812 574.622070312 112.379882812 519.336914062 c 0
 112.379882812 453.685546875 167.616210938 409.431640625 220.953125 409.431640625 c 0
 282.094726562 409.431640625 328.75 461.5 328.75 519.819335938 c 0
EndSplineSet
Validated: 524289
LCarets2: 1 0
Ligature2: "+VAhbVzB4MG5/bmPb in +MOkwxjDzZYdbVwAA lookup 0-1" y o
EndChar

StartChar: y_e
Encoding: 448 -1 196
Width: 450
VWidth: 0
Flags: W
HStem: -198 33<186.005 259.866> -61 33<66 157 186.125 259 290 380> 0 21G<188 255> 302 69<151.587 188> 578 68<151.587 188> 663 20G<188 255>
VStem: 45 67.9531<408.527 539.449> 139 32<-149.688 -76.6098> 188 67<0 306.538 372 577 641.479 683> 274 34<-150.557 -75.3722> 328.125 66.875<409.443 539.5>
LayerCount: 2
Fore
SplineSet
66 -28 m 1
 380 -28 l 1
 380 -61 l 1
 290 -61 l 1
 301 -75 308 -94 308 -113 c 0
 308 -160 270 -198 223 -198 c 0
 177 -198 139 -160 139 -113 c 0
 139 -94 146 -75 157 -61 c 1
 66 -61 l 1
 66 -28 l 1
223 -62 m 0
 194 -62 171 -85 171 -113 c 0
 171 -141 194 -165 223 -165 c 0
 251 -165 274 -141 274 -113 c 0
 274 -85 251 -62 223 -62 c 0
188 683 m 1
 255 683 l 1
 255 646 l 1
 335 630 395 559 395 474 c 0
 395 390 335 319 255 303 c 1
 255 0 l 1
 188 0 l 1
 188 302 l 1
 107 317 45 389 45 474 c 0
 45 560 107 631 188 646 c 1
 188 683 l 1
188 578 m 1
 139.314453125 563.137695312 112.953125 518.073242188 112.953125 473.08984375 c 0
 112.953125 430.295898438 136.809570312 387.576171875 188 371 c 1
 188 578 l 1
255 577 m 1
 255 372 l 1
 303.874023438 388.458007812 328.125 431.528320312 328.125 474.54296875 c 0
 328.125 517.779296875 303.624023438 560.958984375 255 577 c 1
EndSplineSet
Validated: 524289
LCarets2: 1 0
Ligature2: "+VAhbVzB4MG5/bmPb in +MOkwxjDzZYdbVwAA lookup 0-1" y e
EndChar

StartChar: simplified_vocalize
Encoding: 449 -1 217
Width: 1000
Flags: W
HStem: 597.08 124.53
VStem: 296.532 206.936
LayerCount: 2
Fore
SplineSet
503.467773438 721.610351562 m 1
 503.467773438 672.399414062 l 1
 434.489257812 647.29296875 365.510742188 622.186523438 296.532226562 597.080078125 c 1
 296.532226562 646.291015625 l 1
 503.467773438 721.610351562 l 1
EndSplineSet
Validated: 524289
EndChar

StartChar: I
Encoding: 73 73 218
Width: 629
Flags: W
HStem: 0 21G<231 298> 0 21G<231 298> 357 67<47 232 343.757 471.089> 640 67<342.233 470.77>
VStem: 232 67.0615<0 357 468.91 594.495> 515.432 66.8242<468.038 595.787>
LayerCount: 2
Fore
SplineSet
222.255859375 0.1162109375 m 0xbc
 221.1015625 0.0908203125 219.947265625 0.0791015625 218.79296875 0.0791015625 c 0
 173.956054688 0.0791015625 129.453125 18.9443359375 98.255859375 51.1162109375 c 0
 62.642578125 82.87890625 47 125.34765625 47 168.283203125 c 0
 47 258.19140625 115.594726562 350.149414062 213.05859375 350.149414062 c 0
 214.12109375 350.149414062 215.186523438 350.137695312 216.255859375 350.116210938 c 0
 254.255859375 350.116210938 292.255859375 350.116210938 330.255859375 350.116210938 c 1
 330.255859375 479.116210938 331.255859375 578.116210938 331.255859375 707.116210938 c 1
 398.255859375 707.116210938 l 1
 398.255859375 578.116210938 397.255859375 479.116210938 397.255859375 350.116210938 c 1
 582.255859375 350.116210938 l 1
 582.255859375 283.116210938 l 1
 397.255859375 283.116210938 l 1
 397.255859375 194.116210938 l 2
 397.719726562 189.06640625 397.947265625 184.010742188 397.947265625 178.96484375 c 0
 397.947265625 87.98828125 324.01953125 -0 228.288085938 -0 c 0
 226.287109375 -0 224.275390625 0.0380859375 222.255859375 0.1162109375 c 0xbc
222.396484375 283.684570312 m 0
 169.057617188 283.684570312 113.82421875 239.428710938 113.82421875 173.779296875 c 0
 113.82421875 118.494140625 162.111328125 67.0693359375 218.33203125 67.0693359375 c 0
 219.303710938 67.0693359375 220.279296875 67.0849609375 221.255859375 67.1162109375 c 0
 222.02734375 67.0986328125 222.798828125 67.0888671875 223.569335938 67.0888671875 c 0
 281.661132812 67.0888671875 330.194335938 116.111328125 330.194335938 173.296875 c 0
 330.194335938 231.614257812 283.540039062 283.684570312 222.396484375 283.684570312 c 0
EndSplineSet
Validated: 524289
EndChar

StartChar: A
Encoding: 65 65 219
Width: 623
Flags: W
HStem: 0 67<337.659 462.579> 283 67<39 224 335.891 462.866>
VStem: 223 68<112.641 237.994 350 707> 507 67<111.37 239.171>
LayerCount: 2
Fore
SplineSet
402 0 m 6
 393 0 l 6
 297 0 223 88 223 179 c 4
 223 184 224 189 224 194 c 6
 224 283 l 5
 39 283 l 5
 39 350 l 5
 224 350 l 5
 224 479 223 578 223 707 c 5
 290 707 l 5
 290 578 291 479 291 350 c 5
 408 350 l 6
 505 350 574 258 574 168 c 4
 574 125 559 83 523 51 c 4
 492 19 447 0 402 0 c 6
403 67 m 6
 459 67 507 119 507 174 c 4
 507 240 452 284 399 284 c 4
 338 284 291 231 291 173 c 4
 291 116 340 67 398 67 c 6
 403 67 l 6
EndSplineSet
Validated: 1
EndChar

StartChar: U
Encoding: 85 85 220
Width: 592
Flags: W
HStem: 0 67<177.98 305.091 379 548> 283 67<177.891 305.451> 655 20G<66 133>
VStem: 66 67<111.764 237.842 312 675> 350 67<110.831 239.057>
LayerCount: 2
Fore
SplineSet
548 0 m 5
 237 0 l 5
 142 2 66 80 66 175 c 6
 66 675 l 5
 133 675 l 5
 133 312 l 5
 163 336 200 350 241 350 c 4
 338 350 417 272 417 175 c 4
 417 134 403 97 379 67 c 5
 548 67 l 5
 548 0 l 5
240 67 m 4
 304 67 350 118 350 175 c 4
 350 193 345 211 335 229 c 4
 317 260 284 281 248 283 c 5
 241 283 l 6
 180 283 133 231 133 174 c 4
 133 151 141 127 159 105 c 4
 166 96 194 67 240 67 c 4
EndSplineSet
Validated: 1
EndChar

StartChar: O
Encoding: 79 79 221
Width: 603
Flags: W
HStem: 0 67<48 217 290.909 418.02> 283 67<290.549 418.109> 655 20G<463 530>
VStem: 179 67<110.831 238.626> 463 67<111.764 237.842 312 675>
LayerCount: 2
Fore
SplineSet
48 0 m 5
 48 67 l 5
 217 67 l 5
 193 97 179 134 179 175 c 4
 179 272 258 350 355 350 c 4
 396 350 433 336 463 312 c 5
 463 675 l 5
 530 675 l 5
 530 175 l 6
 530 80 454 2 359 0 c 5
 48 0 l 5
463 174 m 4
 463 231 416 283 355 283 c 6
 348 283 l 5
 289 280 246 228 246 175 c 4
 246 118 292 67 356 67 c 4
 419 67 463 121 463 174 c 4
EndSplineSet
Validated: 1
EndChar

StartChar: E
Encoding: 69 69 222
Width: 448
Flags: W
HStem: 0 21G<189 256> 37 68<152.587 189 256 291.883> 311 69<256 291.883> 663 20G<189 256>
VStem: 46 68<143.596 273.622> 189 67<0 41.5215 106 311 376.462 683> 329 67<141.692 273.55>
LayerCount: 2
Fore
SplineSet
189 0 m 5
 189 37 l 5
 108 52 46 123 46 209 c 4
 46 294 108 366 189 381 c 5
 189 683 l 5
 256 683 l 5
 256 380 l 5
 336 364 396 293 396 209 c 4
 396 124 336 53 256 37 c 5
 256 0 l 5
 189 0 l 5
189 105 m 5
 189 312 l 5
 138 295 114 253 114 210 c 4
 114 165 140 120 189 105 c 5
256 106 m 5
 305 122 329 165 329 208 c 4
 329 251 305 295 256 311 c 5
 256 106 l 5
EndSplineSet
Validated: 1
EndChar

StartChar: quotesingle
Encoding: 39 39 223
Width: 424
Flags: W
HStem: 308 67<75 353>
VStem: 75 278<308 375>
LayerCount: 2
Fore
SplineSet
353 375 m 1
 353 308 l 1
 75 308 l 1
 75 375 l 1
 353 375 l 1
EndSplineSet
Validated: 1
EndChar

